<svg width="94" height="58" viewBox="0 0 94 58" fill="none" xmlns="http://www.w3.org/2000/svg">
<path opacity="0.9" d="M2.168 55H0.168V57H2.168V55ZM2.168 48.016L0.522206 46.8796L0.168 47.3926V48.016H2.168ZM9.512 37.144L7.85172 36.0289L7.84595 36.0375L7.84026 36.0461L9.512 37.144ZM18.152 21.376L16.2676 20.706L16.2632 20.7183L16.259 20.7307L18.152 21.376ZM18.224 10.792L16.624 11.992L16.6389 12.0118L16.6542 12.0313L18.224 10.792ZM12.032 10.864L10.4045 9.70152L10.4045 9.70152L12.032 10.864ZM10.952 18.28V20.28H12.952V18.28H10.952ZM2.456 18.28H0.456V20.28H2.456V18.28ZM3.32 10.504L1.4519 9.78972L1.44264 9.81392L1.43402 9.83836L3.32 10.504ZM5.912 6.256L4.44239 4.89943L4.44014 4.90188L5.912 6.256ZM10.088 3.376L10.8495 5.22536L10.8725 5.21588L10.8953 5.20583L10.088 3.376ZM20.672 3.232L21.4455 1.38761L20.672 3.232ZM24.488 5.824L23.0427 7.20644L23.0581 7.2225L23.0738 7.23821L24.488 5.824ZM27.152 19.864L25.1985 19.4352L25.1945 19.4534L25.1908 19.4718L27.152 19.864ZM24.776 26.488L22.9735 25.6214L24.776 26.488ZM19.736 35.272L21.4184 36.3535V36.3535L19.736 35.272ZM11.24 47.656L9.61361 46.492L7.34919 49.656H11.24V47.656ZM27.008 47.656H29.008V45.656H27.008V47.656ZM27.008 55V57H29.008V55H27.008ZM4.168 55V48.016H0.168V55H4.168ZM3.81379 49.1524C6.60435 45.1109 9.06132 41.4737 11.1837 38.2419L7.84026 36.0461C5.73868 39.2463 3.29965 42.8571 0.522206 46.8796L3.81379 49.1524ZM11.1723 38.2591C13.3547 35.0097 15.1862 32.0567 16.6603 29.4033L13.1637 27.4607C11.7578 29.9913 9.98927 32.8463 7.85172 36.0289L11.1723 38.2591ZM16.6603 29.4033C18.1406 26.7388 19.2764 24.2759 20.045 22.0213L16.259 20.7307C15.5876 22.7001 14.5634 24.9412 13.1637 27.4607L16.6603 29.4033ZM20.0364 22.046C20.8665 19.7115 21.304 17.4437 21.304 15.256H17.304C17.304 16.9083 16.9735 18.7205 16.2676 20.706L20.0364 22.046ZM21.304 15.256C21.304 13.0531 20.9379 11.0019 19.7938 9.55271L16.6542 12.0313C16.9501 12.4061 17.304 13.3309 17.304 15.256H21.304ZM19.824 9.592C18.7089 8.10523 17.12 7.352 15.272 7.352V11.352C15.92 11.352 16.2991 11.5588 16.624 11.992L19.824 9.592ZM15.272 7.352C13.3063 7.352 11.5648 8.07718 10.4045 9.70152L13.6595 12.0265C13.9392 11.6348 14.3577 11.352 15.272 11.352V7.352ZM10.4045 9.70152C9.38239 11.1325 8.952 12.8675 8.952 14.752H12.952C12.952 13.4685 13.2416 12.6115 13.6595 12.0265L10.4045 9.70152ZM8.952 14.752V18.28H12.952V14.752H8.952ZM10.952 16.28H2.456V20.28H10.952V16.28ZM4.456 18.28V15.832H0.456V18.28H4.456ZM4.456 15.832C4.456 14.1141 4.71324 12.5657 5.20598 11.1696L1.43402 9.83836C0.774764 11.7062 0.456 13.7099 0.456 15.832H4.456ZM5.1881 11.2183C5.72823 9.80564 6.46319 8.61084 7.38386 7.61011L4.44014 4.90188C3.15281 6.30116 2.15977 7.93836 1.4519 9.78972L5.1881 11.2183ZM7.38161 7.61256C8.32845 6.58681 9.47576 5.79101 10.8495 5.22536L9.3265 1.52664C7.43624 2.30499 5.79955 3.42918 4.44239 4.89944L7.38161 7.61256ZM10.8953 5.20583C12.2305 4.61675 13.8196 4.296 15.704 4.296V0.295996C13.3644 0.295996 11.2095 0.695242 9.28072 1.54616L10.8953 5.20583ZM15.704 4.296C17.2969 4.296 18.6854 4.56766 19.8985 5.07639L21.4455 1.38761C19.6826 0.648336 17.7591 0.295996 15.704 0.295996V4.296ZM19.8985 5.07639C21.1477 5.60024 22.1871 6.31196 23.0427 7.20644L25.9333 4.44155C24.6769 3.12803 23.1723 2.11175 21.4455 1.38761L19.8985 5.07639ZM23.0738 7.23821C23.9422 8.10666 24.6116 9.10943 25.088 10.2607L28.784 8.73129C28.1084 7.09857 27.1458 5.65334 25.9022 4.40978L23.0738 7.23821ZM25.088 10.2607C25.5649 11.4133 25.8 12.5937 25.8 13.816H29.8C29.8 12.0623 29.4591 10.3627 28.784 8.73129L25.088 10.2607ZM25.8 13.816C25.8 15.7393 25.5988 17.6114 25.1985 19.4352L29.1055 20.2928C29.5692 18.1806 29.8 16.0207 29.8 13.816H25.8ZM25.1908 19.4718C24.8501 21.1755 24.1283 23.2194 22.9735 25.6214L26.5785 27.3546C27.8237 24.7646 28.6859 22.3925 29.1132 20.2562L25.1908 19.4718ZM22.9735 25.6214C21.8209 28.0189 20.1868 30.8722 18.0536 34.1905L21.4184 36.3535C23.6052 32.9518 25.3312 29.9491 26.5785 27.3546L22.9735 25.6214ZM18.0536 34.1905C15.9181 37.5124 13.1069 41.611 9.61361 46.492L12.8664 48.82C16.3811 43.909 19.2339 39.7516 21.4184 36.3535L18.0536 34.1905ZM11.24 49.656H27.008V45.656H11.24V49.656ZM25.008 47.656V55H29.008V47.656H25.008ZM27.008 53H2.168V57H27.008V53ZM35.0242 10.36H33.0242V12.36H35.0242V10.36ZM35.0242 3.016V1.016H33.0242V3.016H35.0242ZM58.4962 3.016H60.4962V1.016H58.4962V3.016ZM58.4962 8.056L60.4472 8.49588L60.4962 8.27867V8.056H58.4962ZM47.9122 55V57H49.5115L49.8632 55.4399L47.9122 55ZM39.4882 55L37.5407 54.5445L36.9665 57H39.4882V55ZM49.9282 10.36L51.8756 10.8155L52.4499 8.36H49.9282V10.36ZM37.0242 10.36V3.016H33.0242V10.36H37.0242ZM35.0242 5.016H58.4962V1.016H35.0242V5.016ZM56.4962 3.016V8.056H60.4962V3.016H56.4962ZM56.5452 7.61612L45.9612 54.5601L49.8632 55.4399L60.4472 8.49588L56.5452 7.61612ZM47.9122 53H39.4882V57H47.9122V53ZM41.4356 55.4555L51.8756 10.8155L47.9807 9.90455L37.5407 54.5445L41.4356 55.4555ZM49.9282 8.36H35.0242V12.36H49.9282V8.36ZM69.2484 5.752L70.7555 7.06674L70.7624 7.05889L70.7691 7.05097L69.2484 5.752ZM88.6884 5.752L87.1676 7.05097L87.1744 7.05889L87.1812 7.06674L88.6884 5.752ZM88.6884 52.336L90.1955 53.6507L90.2024 53.6429L90.2091 53.635L88.6884 52.336ZM69.2484 52.336L67.7276 53.635L67.7344 53.6429L67.7412 53.6507L69.2484 52.336ZM85.1444 14.32C85.1444 12.4322 84.7549 10.6438 83.6313 9.3071C82.4518 7.90389 80.7686 7.352 78.9684 7.352V11.352C79.9522 11.352 80.3569 11.6281 80.5694 11.8809C80.8378 12.2002 81.1444 12.8958 81.1444 14.32H85.1444ZM78.9684 7.352C77.1682 7.352 75.4849 7.90388 74.3054 9.30709C73.1818 10.6438 72.7924 12.4322 72.7924 14.32H76.7924C76.7924 12.8958 77.0989 12.2002 77.3673 11.8809C77.5798 11.6281 77.9846 11.352 78.9684 11.352V7.352ZM72.7924 14.32V43.696H76.7924V14.32H72.7924ZM72.7924 43.696C72.7924 45.5838 73.1818 47.3722 74.3054 48.7089C75.4849 50.1121 77.1682 50.664 78.9684 50.664V46.664C77.9846 46.664 77.5798 46.3879 77.3673 46.1351C77.0989 45.8158 76.7924 45.1202 76.7924 43.696H72.7924ZM78.9684 50.664C80.7686 50.664 82.4518 50.1121 83.6313 48.7089C84.7549 47.3722 85.1444 45.5838 85.1444 43.696H81.1444C81.1444 45.1202 80.8378 45.8158 80.5694 46.1351C80.3569 46.3879 79.9522 46.664 78.9684 46.664V50.664ZM85.1444 43.696V14.32H81.1444V43.696H85.1444ZM68.2964 16.552C68.2964 11.7982 69.2559 8.78576 70.7555 7.06674L67.7412 4.43726C65.3048 7.23024 64.2964 11.4178 64.2964 16.552H68.2964ZM70.7691 7.05097C72.202 5.37349 74.7506 4.296 78.9684 4.296V0.295996C74.1622 0.295996 70.2308 1.52251 67.7276 4.45303L70.7691 7.05097ZM78.9684 4.296C83.1862 4.296 85.7348 5.37348 87.1676 7.05097L90.2091 4.45303C87.706 1.52251 83.7746 0.295996 78.9684 0.295996V4.296ZM87.1812 7.06674C88.6808 8.78576 89.6404 11.7982 89.6404 16.552H93.6404C93.6404 11.4178 92.6319 7.23024 90.1955 4.43726L87.1812 7.06674ZM89.6404 16.552V41.464H93.6404V16.552H89.6404ZM89.6404 41.464C89.6404 46.2125 88.683 49.263 87.1676 51.037L90.2091 53.635C92.6298 50.801 93.6404 46.6035 93.6404 41.464H89.6404ZM87.1812 51.0213C85.7516 52.6601 83.198 53.72 78.9684 53.72V57.72C83.7628 57.72 87.6891 56.5239 90.1955 53.6507L87.1812 51.0213ZM78.9684 53.72C74.7388 53.72 72.1851 52.6601 70.7555 51.0213L67.7412 53.6507C70.2476 56.5239 74.174 57.72 78.9684 57.72V53.72ZM70.7691 51.037C69.2538 49.263 68.2964 46.2125 68.2964 41.464H64.2964C64.2964 46.6035 65.307 50.801 67.7276 53.635L70.7691 51.037ZM68.2964 41.464V16.552H64.2964V41.464H68.2964Z" fill="white"/>
</svg>
