<svg width="181" height="108" viewBox="0 0 181 108" fill="none" xmlns="http://www.w3.org/2000/svg">
<path opacity="0.9" d="M25.768 67.408L23.7925 67.0957L23.427 69.408H25.768V67.408ZM40.168 67.408V69.408H42.509L42.1435 67.0957L40.168 67.408ZM33.112 22.768L35.0875 22.4557L34.8207 20.768H33.112V22.768ZM32.824 22.768V20.768H31.1153L30.8485 22.4557L32.824 22.768ZM20.008 106V108H21.7518L21.9894 106.272L20.008 106ZM2.728 106L0.761094 105.638L0.325929 108H2.728V106ZM21.88 2.03199V0.0319901H20.2148L19.9131 1.66967L21.88 2.03199ZM44.056 2.03199L46.0229 1.66967L45.7212 0.0319901H44.056V2.03199ZM63.208 106V108H65.6101L65.1749 105.638L63.208 106ZM45.928 106L43.9466 106.272L44.1842 108H45.928V106ZM42.76 82.96L44.7414 82.6876L44.5038 80.96H42.76V82.96ZM23.176 82.96V80.96H21.4322L21.1946 82.6876L23.176 82.96ZM25.768 69.408H40.168V65.408H25.768V69.408ZM42.1435 67.0957L35.0875 22.4557L31.1365 23.0802L38.1925 67.7203L42.1435 67.0957ZM33.112 20.768H32.824V24.768H33.112V20.768ZM30.8485 22.4557L23.7925 67.0957L27.7435 67.7203L34.7995 23.0802L30.8485 22.4557ZM20.008 104H2.728V108H20.008V104ZM4.69491 106.362L23.8469 2.39432L19.9131 1.66967L0.761094 105.638L4.69491 106.362ZM21.88 4.03199H44.056V0.0319901H21.88V4.03199ZM42.0891 2.39432L61.2411 106.362L65.1749 105.638L46.0229 1.66967L42.0891 2.39432ZM63.208 104H45.928V108H63.208V104ZM47.9094 105.728L44.7414 82.6876L40.7786 83.2324L43.9466 106.272L47.9094 105.728ZM42.76 80.96H23.176V84.96H42.76V80.96ZM21.1946 82.6876L18.0266 105.728L21.9894 106.272L25.1574 83.2324L21.1946 82.6876ZM78.9524 106H76.9524V108H78.9524V106ZM78.9524 2.03199V0.0319901H76.9524V2.03199H78.9524ZM96.8084 2.03199H98.8084V0.0319901H96.8084V2.03199ZM96.8084 106V108H98.8084V106H96.8084ZM80.9524 106V2.03199H76.9524V106H80.9524ZM78.9524 4.03199H96.8084V0.0319901H78.9524V4.03199ZM94.8084 2.03199V106H98.8084V2.03199H94.8084ZM96.8084 104H78.9524V108H96.8084V104ZM137.319 48.688H135.319V50.688H137.319V48.688ZM149.702 47.968L149.167 46.041L149.153 46.045L149.138 46.0493L149.702 47.968ZM153.879 45.376L155.405 46.6679L153.879 45.376ZM156.183 40.48L158.128 40.9432L158.13 40.9333L158.133 40.9232L156.183 40.48ZM153.879 20.176L152.373 21.493L152.387 21.5089L152.402 21.5245L153.879 20.176ZM137.319 16.72V14.72H135.319V16.72H137.319ZM137.319 106V108H139.319V106H137.319ZM119.463 106H117.463V108H119.463V106ZM119.463 2.03199V0.0319901H117.463V2.03199H119.463ZM173.607 43.504L171.67 43.0042L171.662 43.0338L171.656 43.0635L173.607 43.504ZM170.727 51.136L169.005 50.1185L168.997 50.1311L168.99 50.1437L170.727 51.136ZM166.695 56.032L165.433 54.4798L165.409 54.4998L165.385 54.5206L166.695 56.032ZM162.23 58.912L161.429 57.0797L159.774 57.8037L160.326 59.5235L162.23 58.912ZM177.351 106V108H180.093L179.255 105.389L177.351 106ZM159.207 106L157.288 106.565L157.71 108H159.207V106ZM146.535 62.944L148.453 62.3793L147.953 60.68L146.206 60.9712L146.535 62.944ZM142.215 63.376V65.376H142.27L142.325 65.3729L142.215 63.376ZM137.319 63.376V61.376H135.319V63.376H137.319ZM137.319 50.688H143.655V46.688H137.319V50.688ZM143.655 50.688C146.174 50.688 148.394 50.4377 150.267 49.8867L149.138 46.0493C147.747 46.4583 145.935 46.688 143.655 46.688V50.688ZM150.238 49.895C152.313 49.3185 154.065 48.2519 155.405 46.6679L152.352 44.0841C151.58 44.996 150.548 45.6575 149.167 46.041L150.238 49.895ZM155.405 46.6679C156.711 45.1249 157.594 43.185 158.128 40.9432L154.237 40.0168C153.811 41.807 153.158 43.1311 152.352 44.0841L155.405 46.6679ZM158.133 40.9232C158.656 38.6194 158.903 35.8686 158.903 32.704H154.903C154.903 35.6834 154.669 38.1166 154.232 40.0368L158.133 40.9232ZM158.903 32.704C158.903 26.5059 157.92 21.6362 155.355 18.8275L152.402 21.5245C153.869 23.1318 154.903 26.6141 154.903 32.704H158.903ZM155.384 18.859C152.817 15.9252 148.707 14.72 143.655 14.72V18.72C148.202 18.72 150.908 19.8188 152.373 21.493L155.384 18.859ZM143.655 14.72H137.319V18.72H143.655V14.72ZM135.319 16.72V48.688H139.319V16.72H135.319ZM137.319 104H119.463V108H137.319V104ZM121.463 106V2.03199H117.463V106H121.463ZM119.463 4.03199H144.519V0.0319901H119.463V4.03199ZM144.519 4.03199C154.219 4.03199 161.185 6.31895 165.769 10.5565L168.484 7.61945C162.892 2.44904 154.786 0.0319901 144.519 0.0319901V4.03199ZM165.769 10.5565C170.259 14.7077 172.759 21.8988 172.759 32.704H176.759C176.759 21.4292 174.17 12.8763 168.484 7.61945L165.769 10.5565ZM172.759 32.704C172.759 36.8174 172.383 40.2395 171.67 43.0042L175.543 44.0038C176.366 40.8165 176.759 37.0386 176.759 32.704H172.759ZM171.656 43.0635C171.019 45.8838 170.125 48.2232 169.005 50.1185L172.448 52.1535C173.824 49.8247 174.85 47.0762 175.557 43.9445L171.656 43.0635ZM168.99 50.1437C167.94 51.9818 166.748 53.4119 165.433 54.4798L167.956 57.5842C169.713 56.1561 171.209 54.3222 172.463 52.1283L168.99 50.1437ZM165.385 54.5206C164.076 55.6544 162.757 56.4986 161.429 57.0797L163.032 60.7443C164.776 59.9814 166.433 58.9056 168.004 57.5434L165.385 54.5206ZM160.326 59.5235L175.446 106.611L179.255 105.389L164.135 58.3005L160.326 59.5235ZM177.351 104H159.207V108H177.351V104ZM161.125 105.435L148.453 62.3793L144.616 63.5087L157.288 106.565L161.125 105.435ZM146.206 60.9712C145.151 61.147 143.79 61.2854 142.104 61.3791L142.325 65.3729C144.095 65.2746 145.614 65.125 146.863 64.9168L146.206 60.9712ZM142.215 61.376C142.211 61.376 142.208 61.376 142.205 61.376C142.202 61.376 142.199 61.376 142.195 61.376C142.192 61.376 142.189 61.376 142.186 61.376C142.183 61.376 142.179 61.376 142.176 61.376C142.173 61.376 142.17 61.376 142.167 61.376C142.163 61.376 142.16 61.376 142.157 61.376C142.154 61.376 142.151 61.376 142.148 61.376C142.144 61.376 142.141 61.376 142.138 61.376C142.135 61.376 142.132 61.376 142.128 61.376C142.125 61.376 142.122 61.376 142.119 61.376C142.116 61.376 142.113 61.376 142.109 61.376C142.106 61.376 142.103 61.376 142.1 61.376C142.097 61.376 142.093 61.376 142.09 61.376C142.087 61.376 142.084 61.376 142.081 61.376C142.077 61.376 142.074 61.376 142.071 61.376C142.068 61.376 142.065 61.376 142.062 61.376C142.058 61.376 142.055 61.376 142.052 61.376C142.049 61.376 142.046 61.376 142.042 61.376C142.039 61.376 142.036 61.376 142.033 61.376C142.03 61.376 142.026 61.376 142.023 61.376C142.02 61.376 142.017 61.376 142.014 61.376C142.01 61.376 142.007 61.376 142.004 61.376C142.001 61.376 141.998 61.376 141.995 61.376C141.991 61.376 141.988 61.376 141.985 61.376C141.982 61.376 141.979 61.376 141.975 61.376C141.972 61.376 141.969 61.376 141.966 61.376C141.963 61.376 141.96 61.376 141.956 61.376C141.953 61.376 141.95 61.376 141.947 61.376C141.944 61.376 141.94 61.376 141.937 61.376C141.934 61.376 141.931 61.376 141.928 61.376C141.924 61.376 141.921 61.376 141.918 61.376C141.915 61.376 141.912 61.376 141.909 61.376C141.905 61.376 141.902 61.376 141.899 61.376C141.896 61.376 141.893 61.376 141.889 61.376C141.886 61.376 141.883 61.376 141.88 61.376C141.877 61.376 141.873 61.376 141.87 61.376C141.867 61.376 141.864 61.376 141.861 61.376C141.857 61.376 141.854 61.376 141.851 61.376C141.848 61.376 141.845 61.376 141.842 61.376C141.838 61.376 141.835 61.376 141.832 61.376C141.829 61.376 141.826 61.376 141.822 61.376C141.819 61.376 141.816 61.376 141.813 61.376C141.81 61.376 141.807 61.376 141.803 61.376C141.8 61.376 141.797 61.376 141.794 61.376C141.791 61.376 141.787 61.376 141.784 61.376C141.781 61.376 141.778 61.376 141.775 61.376C141.771 61.376 141.768 61.376 141.765 61.376C141.762 61.376 141.759 61.376 141.756 61.376C141.752 61.376 141.749 61.376 141.746 61.376C141.743 61.376 141.74 61.376 141.736 61.376C141.733 61.376 141.73 61.376 141.727 61.376C141.724 61.376 141.72 61.376 141.717 61.376C141.714 61.376 141.711 61.376 141.708 61.376C141.704 61.376 141.701 61.376 141.698 61.376C141.695 61.376 141.692 61.376 141.689 61.376C141.685 61.376 141.682 61.376 141.679 61.376C141.676 61.376 141.673 61.376 141.669 61.376C141.666 61.376 141.663 61.376 141.66 61.376C141.657 61.376 141.654 61.376 141.65 61.376C141.647 61.376 141.644 61.376 141.641 61.376C141.638 61.376 141.634 61.376 141.631 61.376C141.628 61.376 141.625 61.376 141.622 61.376C141.618 61.376 141.615 61.376 141.612 61.376C141.609 61.376 141.606 61.376 141.603 61.376C141.599 61.376 141.596 61.376 141.593 61.376C141.59 61.376 141.587 61.376 141.583 61.376C141.58 61.376 141.577 61.376 141.574 61.376C141.571 61.376 141.567 61.376 141.564 61.376C141.561 61.376 141.558 61.376 141.555 61.376C141.551 61.376 141.548 61.376 141.545 61.376C141.542 61.376 141.539 61.376 141.536 61.376C141.532 61.376 141.529 61.376 141.526 61.376C141.523 61.376 141.52 61.376 141.516 61.376C141.513 61.376 141.51 61.376 141.507 61.376C141.504 61.376 141.501 61.376 141.497 61.376C141.494 61.376 141.491 61.376 141.488 61.376C141.485 61.376 141.481 61.376 141.478 61.376C141.475 61.376 141.472 61.376 141.469 61.376C141.465 61.376 141.462 61.376 141.459 61.376C141.456 61.376 141.453 61.376 141.45 61.376C141.446 61.376 141.443 61.376 141.44 61.376C141.437 61.376 141.434 61.376 141.43 61.376C141.427 61.376 141.424 61.376 141.421 61.376C141.418 61.376 141.414 61.376 141.411 61.376C141.408 61.376 141.405 61.376 141.402 61.376C141.398 61.376 141.395 61.376 141.392 61.376C141.389 61.376 141.386 61.376 141.383 61.376C141.379 61.376 141.376 61.376 141.373 61.376C141.37 61.376 141.367 61.376 141.363 61.376C141.36 61.376 141.357 61.376 141.354 61.376C141.351 61.376 141.348 61.376 141.344 61.376C141.341 61.376 141.338 61.376 141.335 61.376C141.332 61.376 141.328 61.376 141.325 61.376C141.322 61.376 141.319 61.376 141.316 61.376C141.312 61.376 141.309 61.376 141.306 61.376C141.303 61.376 141.3 61.376 141.297 61.376C141.293 61.376 141.29 61.376 141.287 61.376C141.284 61.376 141.281 61.376 141.277 61.376C141.274 61.376 141.271 61.376 141.268 61.376C141.265 61.376 141.261 61.376 141.258 61.376C141.255 61.376 141.252 61.376 141.249 61.376C141.245 61.376 141.242 61.376 141.239 61.376C141.236 61.376 141.233 61.376 141.23 61.376C141.226 61.376 141.223 61.376 141.22 61.376C141.217 61.376 141.214 61.376 141.21 61.376C141.207 61.376 141.204 61.376 141.201 61.376C141.198 61.376 141.195 61.376 141.191 61.376C141.188 61.376 141.185 61.376 141.182 61.376C141.179 61.376 141.175 61.376 141.172 61.376C141.169 61.376 141.166 61.376 141.163 61.376C141.159 61.376 141.156 61.376 141.153 61.376C141.15 61.376 141.147 61.376 141.144 61.376C141.14 61.376 141.137 61.376 141.134 61.376C141.131 61.376 141.128 61.376 141.124 61.376C141.121 61.376 141.118 61.376 141.115 61.376C141.112 61.376 141.108 61.376 141.105 61.376C141.102 61.376 141.099 61.376 141.096 61.376C141.092 61.376 141.089 61.376 141.086 61.376C141.083 61.376 141.08 61.376 141.077 61.376C141.073 61.376 141.07 61.376 141.067 61.376C141.064 61.376 141.061 61.376 141.057 61.376C141.054 61.376 141.051 61.376 141.048 61.376C141.045 61.376 141.042 61.376 141.038 61.376C141.035 61.376 141.032 61.376 141.029 61.376C141.026 61.376 141.022 61.376 141.019 61.376C141.016 61.376 141.013 61.376 141.01 61.376C141.006 61.376 141.003 61.376 141 61.376C140.997 61.376 140.994 61.376 140.991 61.376C140.987 61.376 140.984 61.376 140.981 61.376C140.978 61.376 140.975 61.376 140.971 61.376C140.968 61.376 140.965 61.376 140.962 61.376C140.959 61.376 140.955 61.376 140.952 61.376C140.949 61.376 140.946 61.376 140.943 61.376C140.939 61.376 140.936 61.376 140.933 61.376C140.93 61.376 140.927 61.376 140.924 61.376C140.92 61.376 140.917 61.376 140.914 61.376C140.911 61.376 140.908 61.376 140.904 61.376C140.901 61.376 140.898 61.376 140.895 61.376C140.892 61.376 140.889 61.376 140.885 61.376C140.882 61.376 140.879 61.376 140.876 61.376C140.873 61.376 140.869 61.376 140.866 61.376C140.863 61.376 140.86 61.376 140.857 61.376C140.853 61.376 140.85 61.376 140.847 61.376C140.844 61.376 140.841 61.376 140.838 61.376C140.834 61.376 140.831 61.376 140.828 61.376C140.825 61.376 140.822 61.376 140.818 61.376C140.815 61.376 140.812 61.376 140.809 61.376C140.806 61.376 140.802 61.376 140.799 61.376C140.796 61.376 140.793 61.376 140.79 61.376C140.786 61.376 140.783 61.376 140.78 61.376C140.777 61.376 140.774 61.376 140.771 61.376C140.767 61.376 140.764 61.376 140.761 61.376C140.758 61.376 140.755 61.376 140.751 61.376C140.748 61.376 140.745 61.376 140.742 61.376C140.739 61.376 140.736 61.376 140.732 61.376C140.729 61.376 140.726 61.376 140.723 61.376C140.72 61.376 140.716 61.376 140.713 61.376C140.71 61.376 140.707 61.376 140.704 61.376C140.7 61.376 140.697 61.376 140.694 61.376C140.691 61.376 140.688 61.376 140.685 61.376C140.681 61.376 140.678 61.376 140.675 61.376C140.672 61.376 140.669 61.376 140.665 61.376C140.662 61.376 140.659 61.376 140.656 61.376C140.653 61.376 140.649 61.376 140.646 61.376C140.643 61.376 140.64 61.376 140.637 61.376C140.633 61.376 140.63 61.376 140.627 61.376C140.624 61.376 140.621 61.376 140.618 61.376C140.614 61.376 140.611 61.376 140.608 61.376C140.605 61.376 140.602 61.376 140.598 61.376C140.595 61.376 140.592 61.376 140.589 61.376C140.586 61.376 140.583 61.376 140.579 61.376C140.576 61.376 140.573 61.376 140.57 61.376C140.567 61.376 140.563 61.376 140.56 61.376C140.557 61.376 140.554 61.376 140.551 61.376C140.547 61.376 140.544 61.376 140.541 61.376C140.538 61.376 140.535 61.376 140.532 61.376C140.528 61.376 140.525 61.376 140.522 61.376C140.519 61.376 140.516 61.376 140.512 61.376C140.509 61.376 140.506 61.376 140.503 61.376C140.5 61.376 140.496 61.376 140.493 61.376C140.49 61.376 140.487 61.376 140.484 61.376C140.48 61.376 140.477 61.376 140.474 61.376C140.471 61.376 140.468 61.376 140.465 61.376C140.461 61.376 140.458 61.376 140.455 61.376C140.452 61.376 140.449 61.376 140.445 61.376C140.442 61.376 140.439 61.376 140.436 61.376C140.433 61.376 140.43 61.376 140.426 61.376C140.423 61.376 140.42 61.376 140.417 61.376C140.414 61.376 140.41 61.376 140.407 61.376C140.404 61.376 140.401 61.376 140.398 61.376C140.394 61.376 140.391 61.376 140.388 61.376C140.385 61.376 140.382 61.376 140.379 61.376C140.375 61.376 140.372 61.376 140.369 61.376C140.366 61.376 140.363 61.376 140.359 61.376C140.356 61.376 140.353 61.376 140.35 61.376C140.347 61.376 140.343 61.376 140.34 61.376C140.337 61.376 140.334 61.376 140.331 61.376C140.327 61.376 140.324 61.376 140.321 61.376C140.318 61.376 140.315 61.376 140.312 61.376C140.308 61.376 140.305 61.376 140.302 61.376C140.299 61.376 140.296 61.376 140.292 61.376C140.289 61.376 140.286 61.376 140.283 61.376C140.28 61.376 140.277 61.376 140.273 61.376C140.27 61.376 140.267 61.376 140.264 61.376C140.261 61.376 140.257 61.376 140.254 61.376C140.251 61.376 140.248 61.376 140.245 61.376C140.241 61.376 140.238 61.376 140.235 61.376C140.232 61.376 140.229 61.376 140.226 61.376C140.222 61.376 140.219 61.376 140.216 61.376C140.213 61.376 140.21 61.376 140.206 61.376C140.203 61.376 140.2 61.376 140.197 61.376C140.194 61.376 140.19 61.376 140.187 61.376C140.184 61.376 140.181 61.376 140.178 61.376C140.174 61.376 140.171 61.376 140.168 61.376C140.165 61.376 140.162 61.376 140.159 61.376C140.155 61.376 140.152 61.376 140.149 61.376C140.146 61.376 140.143 61.376 140.139 61.376C140.136 61.376 140.133 61.376 140.13 61.376C140.127 61.376 140.124 61.376 140.12 61.376C140.117 61.376 140.114 61.376 140.111 61.376C140.108 61.376 140.104 61.376 140.101 61.376C140.098 61.376 140.095 61.376 140.092 61.376C140.088 61.376 140.085 61.376 140.082 61.376C140.079 61.376 140.076 61.376 140.073 61.376C140.069 61.376 140.066 61.376 140.063 61.376C140.06 61.376 140.057 61.376 140.053 61.376C140.05 61.376 140.047 61.376 140.044 61.376C140.041 61.376 140.037 61.376 140.034 61.376C140.031 61.376 140.028 61.376 140.025 61.376C140.021 61.376 140.018 61.376 140.015 61.376C140.012 61.376 140.009 61.376 140.006 61.376C140.002 61.376 139.999 61.376 139.996 61.376C139.993 61.376 139.99 61.376 139.986 61.376C139.983 61.376 139.98 61.376 139.977 61.376C139.974 61.376 139.971 61.376 139.967 61.376C139.964 61.376 139.961 61.376 139.958 61.376C139.955 61.376 139.951 61.376 139.948 61.376C139.945 61.376 139.942 61.376 139.939 61.376C139.935 61.376 139.932 61.376 139.929 61.376C139.926 61.376 139.923 61.376 139.92 61.376C139.916 61.376 139.913 61.376 139.91 61.376C139.907 61.376 139.904 61.376 139.9 61.376C139.897 61.376 139.894 61.376 139.891 61.376C139.888 61.376 139.884 61.376 139.881 61.376C139.878 61.376 139.875 61.376 139.872 61.376C139.868 61.376 139.865 61.376 139.862 61.376C139.859 61.376 139.856 61.376 139.853 61.376C139.849 61.376 139.846 61.376 139.843 61.376C139.84 61.376 139.837 61.376 139.833 61.376C139.83 61.376 139.827 61.376 139.824 61.376C139.821 61.376 139.818 61.376 139.814 61.376C139.811 61.376 139.808 61.376 139.805 61.376C139.802 61.376 139.798 61.376 139.795 61.376C139.792 61.376 139.789 61.376 139.786 61.376C139.782 61.376 139.779 61.376 139.776 61.376C139.773 61.376 139.77 61.376 139.767 61.376C139.763 61.376 139.76 61.376 139.757 61.376C139.754 61.376 139.751 61.376 139.747 61.376C139.744 61.376 139.741 61.376 139.738 61.376C139.735 61.376 139.731 61.376 139.728 61.376C139.725 61.376 139.722 61.376 139.719 61.376C139.715 61.376 139.712 61.376 139.709 61.376C139.706 61.376 139.703 61.376 139.7 61.376C139.696 61.376 139.693 61.376 139.69 61.376C139.687 61.376 139.684 61.376 139.68 61.376C139.677 61.376 139.674 61.376 139.671 61.376C139.668 61.376 139.665 61.376 139.661 61.376C139.658 61.376 139.655 61.376 139.652 61.376C139.649 61.376 139.645 61.376 139.642 61.376C139.639 61.376 139.636 61.376 139.633 61.376C139.629 61.376 139.626 61.376 139.623 61.376C139.62 61.376 139.617 61.376 139.614 61.376C139.61 61.376 139.607 61.376 139.604 61.376C139.601 61.376 139.598 61.376 139.594 61.376C139.591 61.376 139.588 61.376 139.585 61.376C139.582 61.376 139.578 61.376 139.575 61.376C139.572 61.376 139.569 61.376 139.566 61.376C139.562 61.376 139.559 61.376 139.556 61.376C139.553 61.376 139.55 61.376 139.547 61.376C139.543 61.376 139.54 61.376 139.537 61.376C139.534 61.376 139.531 61.376 139.527 61.376C139.524 61.376 139.521 61.376 139.518 61.376C139.515 61.376 139.512 61.376 139.508 61.376C139.505 61.376 139.502 61.376 139.499 61.376C139.496 61.376 139.492 61.376 139.489 61.376C139.486 61.376 139.483 61.376 139.48 61.376C139.476 61.376 139.473 61.376 139.47 61.376C139.467 61.376 139.464 61.376 139.461 61.376C139.457 61.376 139.454 61.376 139.451 61.376C139.448 61.376 139.445 61.376 139.441 61.376C139.438 61.376 139.435 61.376 139.432 61.376C139.429 61.376 139.425 61.376 139.422 61.376C139.419 61.376 139.416 61.376 139.413 61.376C139.41 61.376 139.406 61.376 139.403 61.376C139.4 61.376 139.397 61.376 139.394 61.376C139.39 61.376 139.387 61.376 139.384 61.376C139.381 61.376 139.378 61.376 139.374 61.376C139.371 61.376 139.368 61.376 139.365 61.376C139.362 61.376 139.359 61.376 139.355 61.376C139.352 61.376 139.349 61.376 139.346 61.376C139.343 61.376 139.339 61.376 139.336 61.376C139.333 61.376 139.33 61.376 139.327 61.376C139.323 61.376 139.32 61.376 139.317 61.376C139.314 61.376 139.311 61.376 139.308 61.376C139.304 61.376 139.301 61.376 139.298 61.376C139.295 61.376 139.292 61.376 139.288 61.376C139.285 61.376 139.282 61.376 139.279 61.376C139.276 61.376 139.272 61.376 139.269 61.376C139.266 61.376 139.263 61.376 139.26 61.376C139.257 61.376 139.253 61.376 139.25 61.376C139.247 61.376 139.244 61.376 139.241 61.376C139.237 61.376 139.234 61.376 139.231 61.376C139.228 61.376 139.225 61.376 139.221 61.376C139.218 61.376 139.215 61.376 139.212 61.376C139.209 61.376 139.206 61.376 139.202 61.376C139.199 61.376 139.196 61.376 139.193 61.376C139.19 61.376 139.186 61.376 139.183 61.376C139.18 61.376 139.177 61.376 139.174 61.376C139.17 61.376 139.167 61.376 139.164 61.376C139.161 61.376 139.158 61.376 139.155 61.376C139.151 61.376 139.148 61.376 139.145 61.376C139.142 61.376 139.139 61.376 139.135 61.376C139.132 61.376 139.129 61.376 139.126 61.376C139.123 61.376 139.119 61.376 139.116 61.376C139.113 61.376 139.11 61.376 139.107 61.376C139.104 61.376 139.1 61.376 139.097 61.376C139.094 61.376 139.091 61.376 139.088 61.376C139.084 61.376 139.081 61.376 139.078 61.376C139.075 61.376 139.072 61.376 139.068 61.376C139.065 61.376 139.062 61.376 139.059 61.376C139.056 61.376 139.053 61.376 139.049 61.376C139.046 61.376 139.043 61.376 139.04 61.376C139.037 61.376 139.033 61.376 139.03 61.376C139.027 61.376 139.024 61.376 139.021 61.376C139.017 61.376 139.014 61.376 139.011 61.376C139.008 61.376 139.005 61.376 139.002 61.376C138.998 61.376 138.995 61.376 138.992 61.376C138.989 61.376 138.986 61.376 138.982 61.376C138.979 61.376 138.976 61.376 138.973 61.376C138.97 61.376 138.966 61.376 138.963 61.376C138.96 61.376 138.957 61.376 138.954 61.376C138.951 61.376 138.947 61.376 138.944 61.376C138.941 61.376 138.938 61.376 138.935 61.376C138.931 61.376 138.928 61.376 138.925 61.376C138.922 61.376 138.919 61.376 138.915 61.376C138.912 61.376 138.909 61.376 138.906 61.376C138.903 61.376 138.9 61.376 138.896 61.376C138.893 61.376 138.89 61.376 138.887 61.376C138.884 61.376 138.88 61.376 138.877 61.376C138.874 61.376 138.871 61.376 138.868 61.376C138.864 61.376 138.861 61.376 138.858 61.376C138.855 61.376 138.852 61.376 138.849 61.376C138.845 61.376 138.842 61.376 138.839 61.376C138.836 61.376 138.833 61.376 138.829 61.376C138.826 61.376 138.823 61.376 138.82 61.376C138.817 61.376 138.813 61.376 138.81 61.376C138.807 61.376 138.804 61.376 138.801 61.376C138.798 61.376 138.794 61.376 138.791 61.376C138.788 61.376 138.785 61.376 138.782 61.376C138.778 61.376 138.775 61.376 138.772 61.376C138.769 61.376 138.766 61.376 138.762 61.376C138.759 61.376 138.756 61.376 138.753 61.376C138.75 61.376 138.747 61.376 138.743 61.376C138.74 61.376 138.737 61.376 138.734 61.376C138.731 61.376 138.727 61.376 138.724 61.376C138.721 61.376 138.718 61.376 138.715 61.376C138.711 61.376 138.708 61.376 138.705 61.376C138.702 61.376 138.699 61.376 138.696 61.376C138.692 61.376 138.689 61.376 138.686 61.376C138.683 61.376 138.68 61.376 138.676 61.376C138.673 61.376 138.67 61.376 138.667 61.376C138.664 61.376 138.66 61.376 138.657 61.376C138.654 61.376 138.651 61.376 138.648 61.376C138.645 61.376 138.641 61.376 138.638 61.376C138.635 61.376 138.632 61.376 138.629 61.376C138.625 61.376 138.622 61.376 138.619 61.376C138.616 61.376 138.613 61.376 138.609 61.376C138.606 61.376 138.603 61.376 138.6 61.376C138.597 61.376 138.594 61.376 138.59 61.376C138.587 61.376 138.584 61.376 138.581 61.376C138.578 61.376 138.574 61.376 138.571 61.376C138.568 61.376 138.565 61.376 138.562 61.376C138.558 61.376 138.555 61.376 138.552 61.376C138.549 61.376 138.546 61.376 138.543 61.376C138.539 61.376 138.536 61.376 138.533 61.376C138.53 61.376 138.527 61.376 138.523 61.376C138.52 61.376 138.517 61.376 138.514 61.376C138.511 61.376 138.507 61.376 138.504 61.376C138.501 61.376 138.498 61.376 138.495 61.376C138.492 61.376 138.488 61.376 138.485 61.376C138.482 61.376 138.479 61.376 138.476 61.376C138.472 61.376 138.469 61.376 138.466 61.376C138.463 61.376 138.46 61.376 138.456 61.376C138.453 61.376 138.45 61.376 138.447 61.376C138.444 61.376 138.441 61.376 138.437 61.376C138.434 61.376 138.431 61.376 138.428 61.376C138.425 61.376 138.421 61.376 138.418 61.376C138.415 61.376 138.412 61.376 138.409 61.376C138.405 61.376 138.402 61.376 138.399 61.376C138.396 61.376 138.393 61.376 138.39 61.376C138.386 61.376 138.383 61.376 138.38 61.376C138.377 61.376 138.374 61.376 138.37 61.376C138.367 61.376 138.364 61.376 138.361 61.376C138.358 61.376 138.354 61.376 138.351 61.376C138.348 61.376 138.345 61.376 138.342 61.376C138.339 61.376 138.335 61.376 138.332 61.376C138.329 61.376 138.326 61.376 138.323 61.376C138.319 61.376 138.316 61.376 138.313 61.376C138.31 61.376 138.307 61.376 138.303 61.376C138.3 61.376 138.297 61.376 138.294 61.376C138.291 61.376 138.288 61.376 138.284 61.376C138.281 61.376 138.278 61.376 138.275 61.376C138.272 61.376 138.268 61.376 138.265 61.376C138.262 61.376 138.259 61.376 138.256 61.376C138.252 61.376 138.249 61.376 138.246 61.376C138.243 61.376 138.24 61.376 138.237 61.376C138.233 61.376 138.23 61.376 138.227 61.376C138.224 61.376 138.221 61.376 138.217 61.376C138.214 61.376 138.211 61.376 138.208 61.376C138.205 61.376 138.201 61.376 138.198 61.376C138.195 61.376 138.192 61.376 138.189 61.376C138.186 61.376 138.182 61.376 138.179 61.376C138.176 61.376 138.173 61.376 138.17 61.376C138.166 61.376 138.163 61.376 138.16 61.376C138.157 61.376 138.154 61.376 138.15 61.376C138.147 61.376 138.144 61.376 138.141 61.376C138.138 61.376 138.135 61.376 138.131 61.376C138.128 61.376 138.125 61.376 138.122 61.376C138.119 61.376 138.115 61.376 138.112 61.376C138.109 61.376 138.106 61.376 138.103 61.376C138.099 61.376 138.096 61.376 138.093 61.376C138.09 61.376 138.087 61.376 138.084 61.376C138.08 61.376 138.077 61.376 138.074 61.376C138.071 61.376 138.068 61.376 138.064 61.376C138.061 61.376 138.058 61.376 138.055 61.376C138.052 61.376 138.048 61.376 138.045 61.376C138.042 61.376 138.039 61.376 138.036 61.376C138.033 61.376 138.029 61.376 138.026 61.376C138.023 61.376 138.02 61.376 138.017 61.376C138.013 61.376 138.01 61.376 138.007 61.376C138.004 61.376 138.001 61.376 137.997 61.376C137.994 61.376 137.991 61.376 137.988 61.376C137.985 61.376 137.982 61.376 137.978 61.376C137.975 61.376 137.972 61.376 137.969 61.376C137.966 61.376 137.962 61.376 137.959 61.376C137.956 61.376 137.953 61.376 137.95 61.376C137.946 61.376 137.943 61.376 137.94 61.376C137.937 61.376 137.934 61.376 137.931 61.376C137.927 61.376 137.924 61.376 137.921 61.376C137.918 61.376 137.915 61.376 137.911 61.376C137.908 61.376 137.905 61.376 137.902 61.376C137.899 61.376 137.895 61.376 137.892 61.376C137.889 61.376 137.886 61.376 137.883 61.376C137.88 61.376 137.876 61.376 137.873 61.376C137.87 61.376 137.867 61.376 137.864 61.376C137.86 61.376 137.857 61.376 137.854 61.376C137.851 61.376 137.848 61.376 137.844 61.376C137.841 61.376 137.838 61.376 137.835 61.376C137.832 61.376 137.829 61.376 137.825 61.376C137.822 61.376 137.819 61.376 137.816 61.376C137.813 61.376 137.809 61.376 137.806 61.376C137.803 61.376 137.8 61.376 137.797 61.376C137.793 61.376 137.79 61.376 137.787 61.376C137.784 61.376 137.781 61.376 137.778 61.376C137.774 61.376 137.771 61.376 137.768 61.376C137.765 61.376 137.762 61.376 137.758 61.376C137.755 61.376 137.752 61.376 137.749 61.376C137.746 61.376 137.742 61.376 137.739 61.376C137.736 61.376 137.733 61.376 137.73 61.376C137.727 61.376 137.723 61.376 137.72 61.376C137.717 61.376 137.714 61.376 137.711 61.376C137.707 61.376 137.704 61.376 137.701 61.376C137.698 61.376 137.695 61.376 137.691 61.376C137.688 61.376 137.685 61.376 137.682 61.376C137.679 61.376 137.676 61.376 137.672 61.376C137.669 61.376 137.666 61.376 137.663 61.376C137.66 61.376 137.656 61.376 137.653 61.376C137.65 61.376 137.647 61.376 137.644 61.376C137.64 61.376 137.637 61.376 137.634 61.376C137.631 61.376 137.628 61.376 137.625 61.376C137.621 61.376 137.618 61.376 137.615 61.376C137.612 61.376 137.609 61.376 137.605 61.376C137.602 61.376 137.599 61.376 137.596 61.376C137.593 61.376 137.589 61.376 137.586 61.376C137.583 61.376 137.58 61.376 137.577 61.376C137.574 61.376 137.57 61.376 137.567 61.376C137.564 61.376 137.561 61.376 137.558 61.376C137.554 61.376 137.551 61.376 137.548 61.376C137.545 61.376 137.542 61.376 137.538 61.376C137.535 61.376 137.532 61.376 137.529 61.376C137.526 61.376 137.523 61.376 137.519 61.376C137.516 61.376 137.513 61.376 137.51 61.376C137.507 61.376 137.503 61.376 137.5 61.376C137.497 61.376 137.494 61.376 137.491 61.376C137.487 61.376 137.484 61.376 137.481 61.376C137.478 61.376 137.475 61.376 137.472 61.376C137.468 61.376 137.465 61.376 137.462 61.376C137.459 61.376 137.456 61.376 137.452 61.376C137.449 61.376 137.446 61.376 137.443 61.376C137.44 61.376 137.436 61.376 137.433 61.376C137.43 61.376 137.427 61.376 137.424 61.376C137.421 61.376 137.417 61.376 137.414 61.376C137.411 61.376 137.408 61.376 137.405 61.376C137.401 61.376 137.398 61.376 137.395 61.376C137.392 61.376 137.389 61.376 137.385 61.376C137.382 61.376 137.379 61.376 137.376 61.376C137.373 61.376 137.37 61.376 137.366 61.376C137.363 61.376 137.36 61.376 137.357 61.376C137.354 61.376 137.35 61.376 137.347 61.376C137.344 61.376 137.341 61.376 137.338 61.376C137.334 61.376 137.331 61.376 137.328 61.376C137.325 61.376 137.322 61.376 137.319 61.376V65.376C137.322 65.376 137.325 65.376 137.328 65.376C137.331 65.376 137.334 65.376 137.338 65.376C137.341 65.376 137.344 65.376 137.347 65.376C137.35 65.376 137.354 65.376 137.357 65.376C137.36 65.376 137.363 65.376 137.366 65.376C137.37 65.376 137.373 65.376 137.376 65.376C137.379 65.376 137.382 65.376 137.385 65.376C137.389 65.376 137.392 65.376 137.395 65.376C137.398 65.376 137.401 65.376 137.405 65.376C137.408 65.376 137.411 65.376 137.414 65.376C137.417 65.376 137.421 65.376 137.424 65.376C137.427 65.376 137.43 65.376 137.433 65.376C137.436 65.376 137.44 65.376 137.443 65.376C137.446 65.376 137.449 65.376 137.452 65.376C137.456 65.376 137.459 65.376 137.462 65.376C137.465 65.376 137.468 65.376 137.472 65.376C137.475 65.376 137.478 65.376 137.481 65.376C137.484 65.376 137.487 65.376 137.491 65.376C137.494 65.376 137.497 65.376 137.5 65.376C137.503 65.376 137.507 65.376 137.51 65.376C137.513 65.376 137.516 65.376 137.519 65.376C137.523 65.376 137.526 65.376 137.529 65.376C137.532 65.376 137.535 65.376 137.538 65.376C137.542 65.376 137.545 65.376 137.548 65.376C137.551 65.376 137.554 65.376 137.558 65.376C137.561 65.376 137.564 65.376 137.567 65.376C137.57 65.376 137.574 65.376 137.577 65.376C137.58 65.376 137.583 65.376 137.586 65.376C137.589 65.376 137.593 65.376 137.596 65.376C137.599 65.376 137.602 65.376 137.605 65.376C137.609 65.376 137.612 65.376 137.615 65.376C137.618 65.376 137.621 65.376 137.625 65.376C137.628 65.376 137.631 65.376 137.634 65.376C137.637 65.376 137.64 65.376 137.644 65.376C137.647 65.376 137.65 65.376 137.653 65.376C137.656 65.376 137.66 65.376 137.663 65.376C137.666 65.376 137.669 65.376 137.672 65.376C137.676 65.376 137.679 65.376 137.682 65.376C137.685 65.376 137.688 65.376 137.691 65.376C137.695 65.376 137.698 65.376 137.701 65.376C137.704 65.376 137.707 65.376 137.711 65.376C137.714 65.376 137.717 65.376 137.72 65.376C137.723 65.376 137.727 65.376 137.73 65.376C137.733 65.376 137.736 65.376 137.739 65.376C137.742 65.376 137.746 65.376 137.749 65.376C137.752 65.376 137.755 65.376 137.758 65.376C137.762 65.376 137.765 65.376 137.768 65.376C137.771 65.376 137.774 65.376 137.778 65.376C137.781 65.376 137.784 65.376 137.787 65.376C137.79 65.376 137.793 65.376 137.797 65.376C137.8 65.376 137.803 65.376 137.806 65.376C137.809 65.376 137.813 65.376 137.816 65.376C137.819 65.376 137.822 65.376 137.825 65.376C137.829 65.376 137.832 65.376 137.835 65.376C137.838 65.376 137.841 65.376 137.844 65.376C137.848 65.376 137.851 65.376 137.854 65.376C137.857 65.376 137.86 65.376 137.864 65.376C137.867 65.376 137.87 65.376 137.873 65.376C137.876 65.376 137.88 65.376 137.883 65.376C137.886 65.376 137.889 65.376 137.892 65.376C137.895 65.376 137.899 65.376 137.902 65.376C137.905 65.376 137.908 65.376 137.911 65.376C137.915 65.376 137.918 65.376 137.921 65.376C137.924 65.376 137.927 65.376 137.931 65.376C137.934 65.376 137.937 65.376 137.94 65.376C137.943 65.376 137.946 65.376 137.95 65.376C137.953 65.376 137.956 65.376 137.959 65.376C137.962 65.376 137.966 65.376 137.969 65.376C137.972 65.376 137.975 65.376 137.978 65.376C137.982 65.376 137.985 65.376 137.988 65.376C137.991 65.376 137.994 65.376 137.997 65.376C138.001 65.376 138.004 65.376 138.007 65.376C138.01 65.376 138.013 65.376 138.017 65.376C138.02 65.376 138.023 65.376 138.026 65.376C138.029 65.376 138.033 65.376 138.036 65.376C138.039 65.376 138.042 65.376 138.045 65.376C138.048 65.376 138.052 65.376 138.055 65.376C138.058 65.376 138.061 65.376 138.064 65.376C138.068 65.376 138.071 65.376 138.074 65.376C138.077 65.376 138.08 65.376 138.084 65.376C138.087 65.376 138.09 65.376 138.093 65.376C138.096 65.376 138.099 65.376 138.103 65.376C138.106 65.376 138.109 65.376 138.112 65.376C138.115 65.376 138.119 65.376 138.122 65.376C138.125 65.376 138.128 65.376 138.131 65.376C138.135 65.376 138.138 65.376 138.141 65.376C138.144 65.376 138.147 65.376 138.15 65.376C138.154 65.376 138.157 65.376 138.16 65.376C138.163 65.376 138.166 65.376 138.17 65.376C138.173 65.376 138.176 65.376 138.179 65.376C138.182 65.376 138.186 65.376 138.189 65.376C138.192 65.376 138.195 65.376 138.198 65.376C138.201 65.376 138.205 65.376 138.208 65.376C138.211 65.376 138.214 65.376 138.217 65.376C138.221 65.376 138.224 65.376 138.227 65.376C138.23 65.376 138.233 65.376 138.237 65.376C138.24 65.376 138.243 65.376 138.246 65.376C138.249 65.376 138.252 65.376 138.256 65.376C138.259 65.376 138.262 65.376 138.265 65.376C138.268 65.376 138.272 65.376 138.275 65.376C138.278 65.376 138.281 65.376 138.284 65.376C138.288 65.376 138.291 65.376 138.294 65.376C138.297 65.376 138.3 65.376 138.303 65.376C138.307 65.376 138.31 65.376 138.313 65.376C138.316 65.376 138.319 65.376 138.323 65.376C138.326 65.376 138.329 65.376 138.332 65.376C138.335 65.376 138.339 65.376 138.342 65.376C138.345 65.376 138.348 65.376 138.351 65.376C138.354 65.376 138.358 65.376 138.361 65.376C138.364 65.376 138.367 65.376 138.37 65.376C138.374 65.376 138.377 65.376 138.38 65.376C138.383 65.376 138.386 65.376 138.39 65.376C138.393 65.376 138.396 65.376 138.399 65.376C138.402 65.376 138.405 65.376 138.409 65.376C138.412 65.376 138.415 65.376 138.418 65.376C138.421 65.376 138.425 65.376 138.428 65.376C138.431 65.376 138.434 65.376 138.437 65.376C138.441 65.376 138.444 65.376 138.447 65.376C138.45 65.376 138.453 65.376 138.456 65.376C138.46 65.376 138.463 65.376 138.466 65.376C138.469 65.376 138.472 65.376 138.476 65.376C138.479 65.376 138.482 65.376 138.485 65.376C138.488 65.376 138.492 65.376 138.495 65.376C138.498 65.376 138.501 65.376 138.504 65.376C138.507 65.376 138.511 65.376 138.514 65.376C138.517 65.376 138.52 65.376 138.523 65.376C138.527 65.376 138.53 65.376 138.533 65.376C138.536 65.376 138.539 65.376 138.543 65.376C138.546 65.376 138.549 65.376 138.552 65.376C138.555 65.376 138.558 65.376 138.562 65.376C138.565 65.376 138.568 65.376 138.571 65.376C138.574 65.376 138.578 65.376 138.581 65.376C138.584 65.376 138.587 65.376 138.59 65.376C138.594 65.376 138.597 65.376 138.6 65.376C138.603 65.376 138.606 65.376 138.609 65.376C138.613 65.376 138.616 65.376 138.619 65.376C138.622 65.376 138.625 65.376 138.629 65.376C138.632 65.376 138.635 65.376 138.638 65.376C138.641 65.376 138.645 65.376 138.648 65.376C138.651 65.376 138.654 65.376 138.657 65.376C138.66 65.376 138.664 65.376 138.667 65.376C138.67 65.376 138.673 65.376 138.676 65.376C138.68 65.376 138.683 65.376 138.686 65.376C138.689 65.376 138.692 65.376 138.696 65.376C138.699 65.376 138.702 65.376 138.705 65.376C138.708 65.376 138.711 65.376 138.715 65.376C138.718 65.376 138.721 65.376 138.724 65.376C138.727 65.376 138.731 65.376 138.734 65.376C138.737 65.376 138.74 65.376 138.743 65.376C138.747 65.376 138.75 65.376 138.753 65.376C138.756 65.376 138.759 65.376 138.762 65.376C138.766 65.376 138.769 65.376 138.772 65.376C138.775 65.376 138.778 65.376 138.782 65.376C138.785 65.376 138.788 65.376 138.791 65.376C138.794 65.376 138.798 65.376 138.801 65.376C138.804 65.376 138.807 65.376 138.81 65.376C138.813 65.376 138.817 65.376 138.82 65.376C138.823 65.376 138.826 65.376 138.829 65.376C138.833 65.376 138.836 65.376 138.839 65.376C138.842 65.376 138.845 65.376 138.849 65.376C138.852 65.376 138.855 65.376 138.858 65.376C138.861 65.376 138.864 65.376 138.868 65.376C138.871 65.376 138.874 65.376 138.877 65.376C138.88 65.376 138.884 65.376 138.887 65.376C138.89 65.376 138.893 65.376 138.896 65.376C138.9 65.376 138.903 65.376 138.906 65.376C138.909 65.376 138.912 65.376 138.915 65.376C138.919 65.376 138.922 65.376 138.925 65.376C138.928 65.376 138.931 65.376 138.935 65.376C138.938 65.376 138.941 65.376 138.944 65.376C138.947 65.376 138.951 65.376 138.954 65.376C138.957 65.376 138.96 65.376 138.963 65.376C138.966 65.376 138.97 65.376 138.973 65.376C138.976 65.376 138.979 65.376 138.982 65.376C138.986 65.376 138.989 65.376 138.992 65.376C138.995 65.376 138.998 65.376 139.002 65.376C139.005 65.376 139.008 65.376 139.011 65.376C139.014 65.376 139.017 65.376 139.021 65.376C139.024 65.376 139.027 65.376 139.03 65.376C139.033 65.376 139.037 65.376 139.04 65.376C139.043 65.376 139.046 65.376 139.049 65.376C139.053 65.376 139.056 65.376 139.059 65.376C139.062 65.376 139.065 65.376 139.068 65.376C139.072 65.376 139.075 65.376 139.078 65.376C139.081 65.376 139.084 65.376 139.088 65.376C139.091 65.376 139.094 65.376 139.097 65.376C139.1 65.376 139.104 65.376 139.107 65.376C139.11 65.376 139.113 65.376 139.116 65.376C139.119 65.376 139.123 65.376 139.126 65.376C139.129 65.376 139.132 65.376 139.135 65.376C139.139 65.376 139.142 65.376 139.145 65.376C139.148 65.376 139.151 65.376 139.155 65.376C139.158 65.376 139.161 65.376 139.164 65.376C139.167 65.376 139.17 65.376 139.174 65.376C139.177 65.376 139.18 65.376 139.183 65.376C139.186 65.376 139.19 65.376 139.193 65.376C139.196 65.376 139.199 65.376 139.202 65.376C139.206 65.376 139.209 65.376 139.212 65.376C139.215 65.376 139.218 65.376 139.221 65.376C139.225 65.376 139.228 65.376 139.231 65.376C139.234 65.376 139.237 65.376 139.241 65.376C139.244 65.376 139.247 65.376 139.25 65.376C139.253 65.376 139.257 65.376 139.26 65.376C139.263 65.376 139.266 65.376 139.269 65.376C139.272 65.376 139.276 65.376 139.279 65.376C139.282 65.376 139.285 65.376 139.288 65.376C139.292 65.376 139.295 65.376 139.298 65.376C139.301 65.376 139.304 65.376 139.308 65.376C139.311 65.376 139.314 65.376 139.317 65.376C139.32 65.376 139.323 65.376 139.327 65.376C139.33 65.376 139.333 65.376 139.336 65.376C139.339 65.376 139.343 65.376 139.346 65.376C139.349 65.376 139.352 65.376 139.355 65.376C139.359 65.376 139.362 65.376 139.365 65.376C139.368 65.376 139.371 65.376 139.374 65.376C139.378 65.376 139.381 65.376 139.384 65.376C139.387 65.376 139.39 65.376 139.394 65.376C139.397 65.376 139.4 65.376 139.403 65.376C139.406 65.376 139.41 65.376 139.413 65.376C139.416 65.376 139.419 65.376 139.422 65.376C139.425 65.376 139.429 65.376 139.432 65.376C139.435 65.376 139.438 65.376 139.441 65.376C139.445 65.376 139.448 65.376 139.451 65.376C139.454 65.376 139.457 65.376 139.461 65.376C139.464 65.376 139.467 65.376 139.47 65.376C139.473 65.376 139.476 65.376 139.48 65.376C139.483 65.376 139.486 65.376 139.489 65.376C139.492 65.376 139.496 65.376 139.499 65.376C139.502 65.376 139.505 65.376 139.508 65.376C139.512 65.376 139.515 65.376 139.518 65.376C139.521 65.376 139.524 65.376 139.527 65.376C139.531 65.376 139.534 65.376 139.537 65.376C139.54 65.376 139.543 65.376 139.547 65.376C139.55 65.376 139.553 65.376 139.556 65.376C139.559 65.376 139.562 65.376 139.566 65.376C139.569 65.376 139.572 65.376 139.575 65.376C139.578 65.376 139.582 65.376 139.585 65.376C139.588 65.376 139.591 65.376 139.594 65.376C139.598 65.376 139.601 65.376 139.604 65.376C139.607 65.376 139.61 65.376 139.614 65.376C139.617 65.376 139.62 65.376 139.623 65.376C139.626 65.376 139.629 65.376 139.633 65.376C139.636 65.376 139.639 65.376 139.642 65.376C139.645 65.376 139.649 65.376 139.652 65.376C139.655 65.376 139.658 65.376 139.661 65.376C139.665 65.376 139.668 65.376 139.671 65.376C139.674 65.376 139.677 65.376 139.68 65.376C139.684 65.376 139.687 65.376 139.69 65.376C139.693 65.376 139.696 65.376 139.7 65.376C139.703 65.376 139.706 65.376 139.709 65.376C139.712 65.376 139.715 65.376 139.719 65.376C139.722 65.376 139.725 65.376 139.728 65.376C139.731 65.376 139.735 65.376 139.738 65.376C139.741 65.376 139.744 65.376 139.747 65.376C139.751 65.376 139.754 65.376 139.757 65.376C139.76 65.376 139.763 65.376 139.767 65.376C139.77 65.376 139.773 65.376 139.776 65.376C139.779 65.376 139.782 65.376 139.786 65.376C139.789 65.376 139.792 65.376 139.795 65.376C139.798 65.376 139.802 65.376 139.805 65.376C139.808 65.376 139.811 65.376 139.814 65.376C139.818 65.376 139.821 65.376 139.824 65.376C139.827 65.376 139.83 65.376 139.833 65.376C139.837 65.376 139.84 65.376 139.843 65.376C139.846 65.376 139.849 65.376 139.853 65.376C139.856 65.376 139.859 65.376 139.862 65.376C139.865 65.376 139.868 65.376 139.872 65.376C139.875 65.376 139.878 65.376 139.881 65.376C139.884 65.376 139.888 65.376 139.891 65.376C139.894 65.376 139.897 65.376 139.9 65.376C139.904 65.376 139.907 65.376 139.91 65.376C139.913 65.376 139.916 65.376 139.92 65.376C139.923 65.376 139.926 65.376 139.929 65.376C139.932 65.376 139.935 65.376 139.939 65.376C139.942 65.376 139.945 65.376 139.948 65.376C139.951 65.376 139.955 65.376 139.958 65.376C139.961 65.376 139.964 65.376 139.967 65.376C139.971 65.376 139.974 65.376 139.977 65.376C139.98 65.376 139.983 65.376 139.986 65.376C139.99 65.376 139.993 65.376 139.996 65.376C139.999 65.376 140.002 65.376 140.006 65.376C140.009 65.376 140.012 65.376 140.015 65.376C140.018 65.376 140.021 65.376 140.025 65.376C140.028 65.376 140.031 65.376 140.034 65.376C140.037 65.376 140.041 65.376 140.044 65.376C140.047 65.376 140.05 65.376 140.053 65.376C140.057 65.376 140.06 65.376 140.063 65.376C140.066 65.376 140.069 65.376 140.073 65.376C140.076 65.376 140.079 65.376 140.082 65.376C140.085 65.376 140.088 65.376 140.092 65.376C140.095 65.376 140.098 65.376 140.101 65.376C140.104 65.376 140.108 65.376 140.111 65.376C140.114 65.376 140.117 65.376 140.12 65.376C140.124 65.376 140.127 65.376 140.13 65.376C140.133 65.376 140.136 65.376 140.139 65.376C140.143 65.376 140.146 65.376 140.149 65.376C140.152 65.376 140.155 65.376 140.159 65.376C140.162 65.376 140.165 65.376 140.168 65.376C140.171 65.376 140.174 65.376 140.178 65.376C140.181 65.376 140.184 65.376 140.187 65.376C140.19 65.376 140.194 65.376 140.197 65.376C140.2 65.376 140.203 65.376 140.206 65.376C140.21 65.376 140.213 65.376 140.216 65.376C140.219 65.376 140.222 65.376 140.226 65.376C140.229 65.376 140.232 65.376 140.235 65.376C140.238 65.376 140.241 65.376 140.245 65.376C140.248 65.376 140.251 65.376 140.254 65.376C140.257 65.376 140.261 65.376 140.264 65.376C140.267 65.376 140.27 65.376 140.273 65.376C140.277 65.376 140.28 65.376 140.283 65.376C140.286 65.376 140.289 65.376 140.292 65.376C140.296 65.376 140.299 65.376 140.302 65.376C140.305 65.376 140.308 65.376 140.312 65.376C140.315 65.376 140.318 65.376 140.321 65.376C140.324 65.376 140.327 65.376 140.331 65.376C140.334 65.376 140.337 65.376 140.34 65.376C140.343 65.376 140.347 65.376 140.35 65.376C140.353 65.376 140.356 65.376 140.359 65.376C140.363 65.376 140.366 65.376 140.369 65.376C140.372 65.376 140.375 65.376 140.379 65.376C140.382 65.376 140.385 65.376 140.388 65.376C140.391 65.376 140.394 65.376 140.398 65.376C140.401 65.376 140.404 65.376 140.407 65.376C140.41 65.376 140.414 65.376 140.417 65.376C140.42 65.376 140.423 65.376 140.426 65.376C140.43 65.376 140.433 65.376 140.436 65.376C140.439 65.376 140.442 65.376 140.445 65.376C140.449 65.376 140.452 65.376 140.455 65.376C140.458 65.376 140.461 65.376 140.465 65.376C140.468 65.376 140.471 65.376 140.474 65.376C140.477 65.376 140.48 65.376 140.484 65.376C140.487 65.376 140.49 65.376 140.493 65.376C140.496 65.376 140.5 65.376 140.503 65.376C140.506 65.376 140.509 65.376 140.512 65.376C140.516 65.376 140.519 65.376 140.522 65.376C140.525 65.376 140.528 65.376 140.532 65.376C140.535 65.376 140.538 65.376 140.541 65.376C140.544 65.376 140.547 65.376 140.551 65.376C140.554 65.376 140.557 65.376 140.56 65.376C140.563 65.376 140.567 65.376 140.57 65.376C140.573 65.376 140.576 65.376 140.579 65.376C140.583 65.376 140.586 65.376 140.589 65.376C140.592 65.376 140.595 65.376 140.598 65.376C140.602 65.376 140.605 65.376 140.608 65.376C140.611 65.376 140.614 65.376 140.618 65.376C140.621 65.376 140.624 65.376 140.627 65.376C140.63 65.376 140.633 65.376 140.637 65.376C140.64 65.376 140.643 65.376 140.646 65.376C140.649 65.376 140.653 65.376 140.656 65.376C140.659 65.376 140.662 65.376 140.665 65.376C140.669 65.376 140.672 65.376 140.675 65.376C140.678 65.376 140.681 65.376 140.685 65.376C140.688 65.376 140.691 65.376 140.694 65.376C140.697 65.376 140.7 65.376 140.704 65.376C140.707 65.376 140.71 65.376 140.713 65.376C140.716 65.376 140.72 65.376 140.723 65.376C140.726 65.376 140.729 65.376 140.732 65.376C140.736 65.376 140.739 65.376 140.742 65.376C140.745 65.376 140.748 65.376 140.751 65.376C140.755 65.376 140.758 65.376 140.761 65.376C140.764 65.376 140.767 65.376 140.771 65.376C140.774 65.376 140.777 65.376 140.78 65.376C140.783 65.376 140.786 65.376 140.79 65.376C140.793 65.376 140.796 65.376 140.799 65.376C140.802 65.376 140.806 65.376 140.809 65.376C140.812 65.376 140.815 65.376 140.818 65.376C140.822 65.376 140.825 65.376 140.828 65.376C140.831 65.376 140.834 65.376 140.838 65.376C140.841 65.376 140.844 65.376 140.847 65.376C140.85 65.376 140.853 65.376 140.857 65.376C140.86 65.376 140.863 65.376 140.866 65.376C140.869 65.376 140.873 65.376 140.876 65.376C140.879 65.376 140.882 65.376 140.885 65.376C140.889 65.376 140.892 65.376 140.895 65.376C140.898 65.376 140.901 65.376 140.904 65.376C140.908 65.376 140.911 65.376 140.914 65.376C140.917 65.376 140.92 65.376 140.924 65.376C140.927 65.376 140.93 65.376 140.933 65.376C140.936 65.376 140.939 65.376 140.943 65.376C140.946 65.376 140.949 65.376 140.952 65.376C140.955 65.376 140.959 65.376 140.962 65.376C140.965 65.376 140.968 65.376 140.971 65.376C140.975 65.376 140.978 65.376 140.981 65.376C140.984 65.376 140.987 65.376 140.991 65.376C140.994 65.376 140.997 65.376 141 65.376C141.003 65.376 141.006 65.376 141.01 65.376C141.013 65.376 141.016 65.376 141.019 65.376C141.022 65.376 141.026 65.376 141.029 65.376C141.032 65.376 141.035 65.376 141.038 65.376C141.042 65.376 141.045 65.376 141.048 65.376C141.051 65.376 141.054 65.376 141.057 65.376C141.061 65.376 141.064 65.376 141.067 65.376C141.07 65.376 141.073 65.376 141.077 65.376C141.08 65.376 141.083 65.376 141.086 65.376C141.089 65.376 141.092 65.376 141.096 65.376C141.099 65.376 141.102 65.376 141.105 65.376C141.108 65.376 141.112 65.376 141.115 65.376C141.118 65.376 141.121 65.376 141.124 65.376C141.128 65.376 141.131 65.376 141.134 65.376C141.137 65.376 141.14 65.376 141.144 65.376C141.147 65.376 141.15 65.376 141.153 65.376C141.156 65.376 141.159 65.376 141.163 65.376C141.166 65.376 141.169 65.376 141.172 65.376C141.175 65.376 141.179 65.376 141.182 65.376C141.185 65.376 141.188 65.376 141.191 65.376C141.195 65.376 141.198 65.376 141.201 65.376C141.204 65.376 141.207 65.376 141.21 65.376C141.214 65.376 141.217 65.376 141.22 65.376C141.223 65.376 141.226 65.376 141.23 65.376C141.233 65.376 141.236 65.376 141.239 65.376C141.242 65.376 141.245 65.376 141.249 65.376C141.252 65.376 141.255 65.376 141.258 65.376C141.261 65.376 141.265 65.376 141.268 65.376C141.271 65.376 141.274 65.376 141.277 65.376C141.281 65.376 141.284 65.376 141.287 65.376C141.29 65.376 141.293 65.376 141.297 65.376C141.3 65.376 141.303 65.376 141.306 65.376C141.309 65.376 141.312 65.376 141.316 65.376C141.319 65.376 141.322 65.376 141.325 65.376C141.328 65.376 141.332 65.376 141.335 65.376C141.338 65.376 141.341 65.376 141.344 65.376C141.348 65.376 141.351 65.376 141.354 65.376C141.357 65.376 141.36 65.376 141.363 65.376C141.367 65.376 141.37 65.376 141.373 65.376C141.376 65.376 141.379 65.376 141.383 65.376C141.386 65.376 141.389 65.376 141.392 65.376C141.395 65.376 141.398 65.376 141.402 65.376C141.405 65.376 141.408 65.376 141.411 65.376C141.414 65.376 141.418 65.376 141.421 65.376C141.424 65.376 141.427 65.376 141.43 65.376C141.434 65.376 141.437 65.376 141.44 65.376C141.443 65.376 141.446 65.376 141.45 65.376C141.453 65.376 141.456 65.376 141.459 65.376C141.462 65.376 141.465 65.376 141.469 65.376C141.472 65.376 141.475 65.376 141.478 65.376C141.481 65.376 141.485 65.376 141.488 65.376C141.491 65.376 141.494 65.376 141.497 65.376C141.501 65.376 141.504 65.376 141.507 65.376C141.51 65.376 141.513 65.376 141.516 65.376C141.52 65.376 141.523 65.376 141.526 65.376C141.529 65.376 141.532 65.376 141.536 65.376C141.539 65.376 141.542 65.376 141.545 65.376C141.548 65.376 141.551 65.376 141.555 65.376C141.558 65.376 141.561 65.376 141.564 65.376C141.567 65.376 141.571 65.376 141.574 65.376C141.577 65.376 141.58 65.376 141.583 65.376C141.587 65.376 141.59 65.376 141.593 65.376C141.596 65.376 141.599 65.376 141.603 65.376C141.606 65.376 141.609 65.376 141.612 65.376C141.615 65.376 141.618 65.376 141.622 65.376C141.625 65.376 141.628 65.376 141.631 65.376C141.634 65.376 141.638 65.376 141.641 65.376C141.644 65.376 141.647 65.376 141.65 65.376C141.654 65.376 141.657 65.376 141.66 65.376C141.663 65.376 141.666 65.376 141.669 65.376C141.673 65.376 141.676 65.376 141.679 65.376C141.682 65.376 141.685 65.376 141.689 65.376C141.692 65.376 141.695 65.376 141.698 65.376C141.701 65.376 141.704 65.376 141.708 65.376C141.711 65.376 141.714 65.376 141.717 65.376C141.72 65.376 141.724 65.376 141.727 65.376C141.73 65.376 141.733 65.376 141.736 65.376C141.74 65.376 141.743 65.376 141.746 65.376C141.749 65.376 141.752 65.376 141.756 65.376C141.759 65.376 141.762 65.376 141.765 65.376C141.768 65.376 141.771 65.376 141.775 65.376C141.778 65.376 141.781 65.376 141.784 65.376C141.787 65.376 141.791 65.376 141.794 65.376C141.797 65.376 141.8 65.376 141.803 65.376C141.807 65.376 141.81 65.376 141.813 65.376C141.816 65.376 141.819 65.376 141.822 65.376C141.826 65.376 141.829 65.376 141.832 65.376C141.835 65.376 141.838 65.376 141.842 65.376C141.845 65.376 141.848 65.376 141.851 65.376C141.854 65.376 141.857 65.376 141.861 65.376C141.864 65.376 141.867 65.376 141.87 65.376C141.873 65.376 141.877 65.376 141.88 65.376C141.883 65.376 141.886 65.376 141.889 65.376C141.893 65.376 141.896 65.376 141.899 65.376C141.902 65.376 141.905 65.376 141.909 65.376C141.912 65.376 141.915 65.376 141.918 65.376C141.921 65.376 141.924 65.376 141.928 65.376C141.931 65.376 141.934 65.376 141.937 65.376C141.94 65.376 141.944 65.376 141.947 65.376C141.95 65.376 141.953 65.376 141.956 65.376C141.96 65.376 141.963 65.376 141.966 65.376C141.969 65.376 141.972 65.376 141.975 65.376C141.979 65.376 141.982 65.376 141.985 65.376C141.988 65.376 141.991 65.376 141.995 65.376C141.998 65.376 142.001 65.376 142.004 65.376C142.007 65.376 142.01 65.376 142.014 65.376C142.017 65.376 142.02 65.376 142.023 65.376C142.026 65.376 142.03 65.376 142.033 65.376C142.036 65.376 142.039 65.376 142.042 65.376C142.046 65.376 142.049 65.376 142.052 65.376C142.055 65.376 142.058 65.376 142.062 65.376C142.065 65.376 142.068 65.376 142.071 65.376C142.074 65.376 142.077 65.376 142.081 65.376C142.084 65.376 142.087 65.376 142.09 65.376C142.093 65.376 142.097 65.376 142.1 65.376C142.103 65.376 142.106 65.376 142.109 65.376C142.113 65.376 142.116 65.376 142.119 65.376C142.122 65.376 142.125 65.376 142.128 65.376C142.132 65.376 142.135 65.376 142.138 65.376C142.141 65.376 142.144 65.376 142.148 65.376C142.151 65.376 142.154 65.376 142.157 65.376C142.16 65.376 142.163 65.376 142.167 65.376C142.17 65.376 142.173 65.376 142.176 65.376C142.179 65.376 142.183 65.376 142.186 65.376C142.189 65.376 142.192 65.376 142.195 65.376C142.199 65.376 142.202 65.376 142.205 65.376C142.208 65.376 142.211 65.376 142.215 65.376V61.376ZM135.319 63.376V106H139.319V63.376H135.319Z" fill="white"/>
</svg>
