<svg width="1121" height="286" viewBox="0 0 1121 286" fill="none" xmlns="http://www.w3.org/2000/svg">
<g opacity="0.9" filter="url(#filter0_d)">
<path d="M70.92 172.52H106.92L89.28 60.92H88.56L70.92 172.52ZM56.52 269H13.32L61.2 9.07998H116.64L164.52 269H121.32L113.4 211.4H64.44L56.52 269ZM203.881 269V9.07998H248.521V269H203.881ZM349.796 125.72H365.636C371.636 125.72 376.676 125.12 380.756 123.92C385.076 122.72 388.556 120.56 391.196 117.44C393.836 114.32 395.756 110.24 396.956 105.2C398.156 99.92 398.756 93.44 398.756 85.76C398.756 70.4 396.236 59.96 391.196 54.44C386.156 48.68 377.636 45.8 365.636 45.8H349.796V125.72ZM349.796 269H305.156V9.07998H367.796C392.756 9.07998 411.596 14.96 424.316 26.72C437.036 38.48 443.396 58.16 443.396 85.76C443.396 96.32 442.436 105.32 440.516 112.76C438.836 120.2 436.436 126.56 433.316 131.84C430.436 136.88 427.076 140.96 423.236 144.08C419.636 147.2 415.916 149.6 412.076 151.28L449.876 269H404.516L372.836 161.36C369.956 161.84 366.356 162.2 362.036 162.44C357.956 162.44 353.876 162.44 349.796 162.44V269ZM758.281 9.07998V269H719.401V65.96H718.681L678.361 269H656.761L616.441 65.96H615.721V269H576.841V9.07998H635.521L667.201 161H667.921L699.601 9.07998H758.281ZM846.959 172.52H882.959L865.319 60.92H864.599L846.959 172.52ZM832.559 269H789.359L837.239 9.07998H892.679L940.559 269H897.359L889.439 211.4H840.479L832.559 269ZM1008.36 132.92L960.84 9.07998H1004.76L1032.12 91.52H1032.84L1057.68 9.07998H1101.6L1056.6 132.92L1107 269H1063.08L1032.84 174.32H1032.12L1001.16 269H957.24L1008.36 132.92Z" fill="white"/>
<path d="M70.92 172.52L69.9323 172.364L69.7495 173.52H70.92V172.52ZM106.92 172.52V173.52H108.09L107.908 172.364L106.92 172.52ZM89.28 60.92L90.2677 60.7639L90.1344 59.92H89.28V60.92ZM88.56 60.92V59.92H87.7057L87.5723 60.7639L88.56 60.92ZM56.52 269V270H57.3919L57.5107 269.136L56.52 269ZM13.32 269L12.3365 268.819L12.119 270H13.32V269ZM61.2 9.07998V8.07998H60.3674L60.2165 8.89881L61.2 9.07998ZM116.64 9.07998L117.623 8.89881L117.473 8.07998H116.64V9.07998ZM164.52 269V270H165.721L165.503 268.819L164.52 269ZM121.32 269L120.329 269.136L120.448 270H121.32V269ZM113.4 211.4L114.391 211.264L114.272 210.4H113.4V211.4ZM64.44 211.4V210.4H63.5681L63.4493 211.264L64.44 211.4ZM70.92 173.52H106.92V171.52H70.92V173.52ZM107.908 172.364L90.2677 60.7639L88.2923 61.0761L105.932 172.676L107.908 172.364ZM89.28 59.92H88.56V61.92H89.28V59.92ZM87.5723 60.7639L69.9323 172.364L71.9077 172.676L89.5477 61.0761L87.5723 60.7639ZM56.52 268H13.32V270H56.52V268ZM14.3035 269.181L62.1835 9.26114L60.2165 8.89881L12.3365 268.819L14.3035 269.181ZM61.2 10.08H116.64V8.07998H61.2V10.08ZM115.657 9.26114L163.537 269.181L165.503 268.819L117.623 8.89881L115.657 9.26114ZM164.52 268H121.32V270H164.52V268ZM122.311 268.864L114.391 211.264L112.409 211.536L120.329 269.136L122.311 268.864ZM113.4 210.4H64.44V212.4H113.4V210.4ZM63.4493 211.264L55.5293 268.864L57.5107 269.136L65.4307 211.536L63.4493 211.264ZM203.881 269H202.881V270H203.881V269ZM203.881 9.07998V8.07998H202.881V9.07998H203.881ZM248.521 9.07998H249.521V8.07998H248.521V9.07998ZM248.521 269V270H249.521V269H248.521ZM204.881 269V9.07998H202.881V269H204.881ZM203.881 10.08H248.521V8.07998H203.881V10.08ZM247.521 9.07998V269H249.521V9.07998H247.521ZM248.521 268H203.881V270H248.521V268ZM349.796 125.72H348.796V126.72H349.796V125.72ZM380.756 123.92L380.489 122.956L380.481 122.958L380.474 122.961L380.756 123.92ZM391.196 117.44L391.96 118.086L391.196 117.44ZM396.956 105.2L397.929 105.432L397.931 105.422L396.956 105.2ZM391.196 54.44L390.444 55.0985L390.451 55.1065L390.458 55.1143L391.196 54.44ZM349.796 45.8V44.8H348.796V45.8H349.796ZM349.796 269V270H350.796V269H349.796ZM305.156 269H304.156V270H305.156V269ZM305.156 9.07998V8.07998H304.156V9.07998H305.156ZM440.516 112.76L439.548 112.51L439.544 112.525L439.541 112.54L440.516 112.76ZM433.316 131.84L432.455 131.331L432.452 131.338L432.448 131.344L433.316 131.84ZM423.236 144.08L422.606 143.304L422.593 143.314L422.581 143.324L423.236 144.08ZM412.076 151.28L411.675 150.364L410.848 150.726L411.124 151.586L412.076 151.28ZM449.876 269V270H451.248L450.828 268.694L449.876 269ZM404.516 269L403.557 269.282L403.768 270H404.516V269ZM372.836 161.36L373.796 161.078L373.546 160.228L372.672 160.374L372.836 161.36ZM362.036 162.44V163.44H362.064L362.092 163.438L362.036 162.44ZM349.796 162.44V161.44H348.796V162.44H349.796ZM349.796 126.72H365.636V124.72H349.796V126.72ZM365.636 126.72C371.696 126.72 376.838 126.115 381.038 124.879L380.474 122.961C376.515 124.125 371.577 124.72 365.636 124.72V126.72ZM381.024 124.884C385.518 123.635 389.177 121.374 391.96 118.086L390.433 116.794C387.935 119.746 384.635 121.805 380.489 122.956L381.024 124.884ZM391.96 118.086C394.724 114.818 396.702 110.584 397.929 105.432L395.983 104.968C394.81 109.896 392.948 113.822 390.433 116.794L391.96 118.086ZM397.931 105.422C399.153 100.046 399.756 93.4863 399.756 85.76H397.756C397.756 93.3937 397.159 99.7943 395.981 104.978L397.931 105.422ZM399.756 85.76C399.756 70.373 397.249 59.5861 391.935 53.7657L390.458 55.1143C395.224 60.3339 397.756 70.427 397.756 85.76H399.756ZM391.949 53.7815C386.633 47.7066 377.762 44.8 365.636 44.8V46.8C377.51 46.8 385.679 49.6534 390.444 55.0985L391.949 53.7815ZM365.636 44.8H349.796V46.8H365.636V44.8ZM348.796 45.8V125.72H350.796V45.8H348.796ZM349.796 268H305.156V270H349.796V268ZM306.156 269V9.07998H304.156V269H306.156ZM305.156 10.08H367.796V8.07998H305.156V10.08ZM367.796 10.08C392.615 10.08 411.17 15.9275 423.637 27.4543L424.995 25.9857C412.023 13.9925 392.898 8.07998 367.796 8.07998V10.08ZM423.637 27.4543C436.058 38.9379 442.396 58.2774 442.396 85.76H444.396C444.396 58.0426 438.014 38.0221 424.995 25.9857L423.637 27.4543ZM442.396 85.76C442.396 96.2647 441.441 105.176 439.548 112.51L441.485 113.01C443.432 105.464 444.396 96.3753 444.396 85.76H442.396ZM439.541 112.54C437.878 119.902 435.511 126.16 432.455 131.331L434.177 132.349C437.361 126.96 439.794 120.498 441.492 112.98L439.541 112.54ZM432.448 131.344C429.619 136.295 426.335 140.274 422.606 143.304L423.867 144.856C427.818 141.646 431.254 137.465 434.184 132.336L432.448 131.344ZM422.581 143.324C419.047 146.387 415.411 148.729 411.675 150.364L412.477 152.196C416.421 150.471 420.225 148.013 423.891 144.836L422.581 143.324ZM411.124 151.586L448.924 269.306L450.828 268.694L413.028 150.974L411.124 151.586ZM449.876 268H404.516V270H449.876V268ZM405.476 268.718L373.796 161.078L371.877 161.642L403.557 269.282L405.476 268.718ZM372.672 160.374C369.841 160.845 366.28 161.203 361.981 161.442L362.092 163.438C366.433 163.197 370.072 162.835 373.001 162.346L372.672 160.374ZM362.036 161.44C362.028 161.44 362.02 161.44 362.012 161.44C362.004 161.44 361.996 161.44 361.988 161.44C361.98 161.44 361.973 161.44 361.965 161.44C361.957 161.44 361.949 161.44 361.941 161.44C361.933 161.44 361.925 161.44 361.917 161.44C361.909 161.44 361.901 161.44 361.893 161.44C361.885 161.44 361.877 161.44 361.869 161.44C361.861 161.44 361.853 161.44 361.845 161.44C361.837 161.44 361.829 161.44 361.821 161.44C361.813 161.44 361.805 161.44 361.797 161.44C361.789 161.44 361.781 161.44 361.773 161.44C361.765 161.44 361.757 161.44 361.749 161.44C361.741 161.44 361.733 161.44 361.725 161.44C361.717 161.44 361.71 161.44 361.702 161.44C361.694 161.44 361.686 161.44 361.678 161.44C361.67 161.44 361.662 161.44 361.654 161.44C361.646 161.44 361.638 161.44 361.63 161.44C361.622 161.44 361.614 161.44 361.606 161.44C361.598 161.44 361.59 161.44 361.582 161.44C361.574 161.44 361.566 161.44 361.558 161.44C361.55 161.44 361.542 161.44 361.534 161.44C361.526 161.44 361.518 161.44 361.51 161.44C361.502 161.44 361.494 161.44 361.486 161.44C361.478 161.44 361.47 161.44 361.462 161.44C361.455 161.44 361.447 161.44 361.439 161.44C361.431 161.44 361.423 161.44 361.415 161.44C361.407 161.44 361.399 161.44 361.391 161.44C361.383 161.44 361.375 161.44 361.367 161.44C361.359 161.44 361.351 161.44 361.343 161.44C361.335 161.44 361.327 161.44 361.319 161.44C361.311 161.44 361.303 161.44 361.295 161.44C361.287 161.44 361.279 161.44 361.271 161.44C361.263 161.44 361.255 161.44 361.247 161.44C361.239 161.44 361.231 161.44 361.223 161.44C361.215 161.44 361.207 161.44 361.2 161.44C361.192 161.44 361.184 161.44 361.176 161.44C361.168 161.44 361.16 161.44 361.152 161.44C361.144 161.44 361.136 161.44 361.128 161.44C361.12 161.44 361.112 161.44 361.104 161.44C361.096 161.44 361.088 161.44 361.08 161.44C361.072 161.44 361.064 161.44 361.056 161.44C361.048 161.44 361.04 161.44 361.032 161.44C361.024 161.44 361.016 161.44 361.008 161.44C361 161.44 360.992 161.44 360.984 161.44C360.976 161.44 360.968 161.44 360.96 161.44C360.952 161.44 360.945 161.44 360.937 161.44C360.929 161.44 360.921 161.44 360.913 161.44C360.905 161.44 360.897 161.44 360.889 161.44C360.881 161.44 360.873 161.44 360.865 161.44C360.857 161.44 360.849 161.44 360.841 161.44C360.833 161.44 360.825 161.44 360.817 161.44C360.809 161.44 360.801 161.44 360.793 161.44C360.785 161.44 360.777 161.44 360.769 161.44C360.761 161.44 360.753 161.44 360.745 161.44C360.737 161.44 360.729 161.44 360.721 161.44C360.713 161.44 360.705 161.44 360.698 161.44C360.69 161.44 360.682 161.44 360.674 161.44C360.666 161.44 360.658 161.44 360.65 161.44C360.642 161.44 360.634 161.44 360.626 161.44C360.618 161.44 360.61 161.44 360.602 161.44C360.594 161.44 360.586 161.44 360.578 161.44C360.57 161.44 360.562 161.44 360.554 161.44C360.546 161.44 360.538 161.44 360.53 161.44C360.522 161.44 360.514 161.44 360.506 161.44C360.498 161.44 360.49 161.44 360.482 161.44C360.474 161.44 360.466 161.44 360.458 161.44C360.45 161.44 360.443 161.44 360.435 161.44C360.427 161.44 360.419 161.44 360.411 161.44C360.403 161.44 360.395 161.44 360.387 161.44C360.379 161.44 360.371 161.44 360.363 161.44C360.355 161.44 360.347 161.44 360.339 161.44C360.331 161.44 360.323 161.44 360.315 161.44C360.307 161.44 360.299 161.44 360.291 161.44C360.283 161.44 360.275 161.44 360.267 161.44C360.259 161.44 360.251 161.44 360.243 161.44C360.235 161.44 360.227 161.44 360.219 161.44C360.211 161.44 360.203 161.44 360.195 161.44C360.188 161.44 360.18 161.44 360.172 161.44C360.164 161.44 360.156 161.44 360.148 161.44C360.14 161.44 360.132 161.44 360.124 161.44C360.116 161.44 360.108 161.44 360.1 161.44C360.092 161.44 360.084 161.44 360.076 161.44C360.068 161.44 360.06 161.44 360.052 161.44C360.044 161.44 360.036 161.44 360.028 161.44C360.02 161.44 360.012 161.44 360.004 161.44C359.996 161.44 359.988 161.44 359.98 161.44C359.972 161.44 359.964 161.44 359.956 161.44C359.948 161.44 359.94 161.44 359.932 161.44C359.925 161.44 359.917 161.44 359.909 161.44C359.901 161.44 359.893 161.44 359.885 161.44C359.877 161.44 359.869 161.44 359.861 161.44C359.853 161.44 359.845 161.44 359.837 161.44C359.829 161.44 359.821 161.44 359.813 161.44C359.805 161.44 359.797 161.44 359.789 161.44C359.781 161.44 359.773 161.44 359.765 161.44C359.757 161.44 359.749 161.44 359.741 161.44C359.733 161.44 359.725 161.44 359.717 161.44C359.709 161.44 359.701 161.44 359.693 161.44C359.685 161.44 359.677 161.44 359.67 161.44C359.662 161.44 359.654 161.44 359.646 161.44C359.638 161.44 359.63 161.44 359.622 161.44C359.614 161.44 359.606 161.44 359.598 161.44C359.59 161.44 359.582 161.44 359.574 161.44C359.566 161.44 359.558 161.44 359.55 161.44C359.542 161.44 359.534 161.44 359.526 161.44C359.518 161.44 359.51 161.44 359.502 161.44C359.494 161.44 359.486 161.44 359.478 161.44C359.47 161.44 359.462 161.44 359.454 161.44C359.446 161.44 359.438 161.44 359.43 161.44C359.422 161.44 359.415 161.44 359.407 161.44C359.399 161.44 359.391 161.44 359.383 161.44C359.375 161.44 359.367 161.44 359.359 161.44C359.351 161.44 359.343 161.44 359.335 161.44C359.327 161.44 359.319 161.44 359.311 161.44C359.303 161.44 359.295 161.44 359.287 161.44C359.279 161.44 359.271 161.44 359.263 161.44C359.255 161.44 359.247 161.44 359.239 161.44C359.231 161.44 359.223 161.44 359.215 161.44C359.207 161.44 359.199 161.44 359.191 161.44C359.183 161.44 359.175 161.44 359.168 161.44C359.16 161.44 359.152 161.44 359.144 161.44C359.136 161.44 359.128 161.44 359.12 161.44C359.112 161.44 359.104 161.44 359.096 161.44C359.088 161.44 359.08 161.44 359.072 161.44C359.064 161.44 359.056 161.44 359.048 161.44C359.04 161.44 359.032 161.44 359.024 161.44C359.016 161.44 359.008 161.44 359 161.44C358.992 161.44 358.984 161.44 358.976 161.44C358.968 161.44 358.96 161.44 358.952 161.44C358.944 161.44 358.936 161.44 358.928 161.44C358.92 161.44 358.913 161.44 358.905 161.44C358.897 161.44 358.889 161.44 358.881 161.44C358.873 161.44 358.865 161.44 358.857 161.44C358.849 161.44 358.841 161.44 358.833 161.44C358.825 161.44 358.817 161.44 358.809 161.44C358.801 161.44 358.793 161.44 358.785 161.44C358.777 161.44 358.769 161.44 358.761 161.44C358.753 161.44 358.745 161.44 358.737 161.44C358.729 161.44 358.721 161.44 358.713 161.44C358.705 161.44 358.697 161.44 358.689 161.44C358.681 161.44 358.673 161.44 358.665 161.44C358.658 161.44 358.65 161.44 358.642 161.44C358.634 161.44 358.626 161.44 358.618 161.44C358.61 161.44 358.602 161.44 358.594 161.44C358.586 161.44 358.578 161.44 358.57 161.44C358.562 161.44 358.554 161.44 358.546 161.44C358.538 161.44 358.53 161.44 358.522 161.44C358.514 161.44 358.506 161.44 358.498 161.44C358.49 161.44 358.482 161.44 358.474 161.44C358.466 161.44 358.458 161.44 358.45 161.44C358.442 161.44 358.434 161.44 358.426 161.44C358.418 161.44 358.41 161.44 358.402 161.44C358.395 161.44 358.387 161.44 358.379 161.44C358.371 161.44 358.363 161.44 358.355 161.44C358.347 161.44 358.339 161.44 358.331 161.44C358.323 161.44 358.315 161.44 358.307 161.44C358.299 161.44 358.291 161.44 358.283 161.44C358.275 161.44 358.267 161.44 358.259 161.44C358.251 161.44 358.243 161.44 358.235 161.44C358.227 161.44 358.219 161.44 358.211 161.44C358.203 161.44 358.195 161.44 358.187 161.44C358.179 161.44 358.171 161.44 358.163 161.44C358.155 161.44 358.147 161.44 358.14 161.44C358.132 161.44 358.124 161.44 358.116 161.44C358.108 161.44 358.1 161.44 358.092 161.44C358.084 161.44 358.076 161.44 358.068 161.44C358.06 161.44 358.052 161.44 358.044 161.44C358.036 161.44 358.028 161.44 358.02 161.44C358.012 161.44 358.004 161.44 357.996 161.44C357.988 161.44 357.98 161.44 357.972 161.44C357.964 161.44 357.956 161.44 357.948 161.44C357.94 161.44 357.932 161.44 357.924 161.44C357.916 161.44 357.908 161.44 357.9 161.44C357.892 161.44 357.885 161.44 357.877 161.44C357.869 161.44 357.861 161.44 357.853 161.44C357.845 161.44 357.837 161.44 357.829 161.44C357.821 161.44 357.813 161.44 357.805 161.44C357.797 161.44 357.789 161.44 357.781 161.44C357.773 161.44 357.765 161.44 357.757 161.44C357.749 161.44 357.741 161.44 357.733 161.44C357.725 161.44 357.717 161.44 357.709 161.44C357.701 161.44 357.693 161.44 357.685 161.44C357.677 161.44 357.669 161.44 357.661 161.44C357.653 161.44 357.645 161.44 357.637 161.44C357.63 161.44 357.622 161.44 357.614 161.44C357.606 161.44 357.598 161.44 357.59 161.44C357.582 161.44 357.574 161.44 357.566 161.44C357.558 161.44 357.55 161.44 357.542 161.44C357.534 161.44 357.526 161.44 357.518 161.44C357.51 161.44 357.502 161.44 357.494 161.44C357.486 161.44 357.478 161.44 357.47 161.44C357.462 161.44 357.454 161.44 357.446 161.44C357.438 161.44 357.43 161.44 357.422 161.44C357.414 161.44 357.406 161.44 357.398 161.44C357.39 161.44 357.383 161.44 357.375 161.44C357.367 161.44 357.359 161.44 357.351 161.44C357.343 161.44 357.335 161.44 357.327 161.44C357.319 161.44 357.311 161.44 357.303 161.44C357.295 161.44 357.287 161.44 357.279 161.44C357.271 161.44 357.263 161.44 357.255 161.44C357.247 161.44 357.239 161.44 357.231 161.44C357.223 161.44 357.215 161.44 357.207 161.44C357.199 161.44 357.191 161.44 357.183 161.44C357.175 161.44 357.167 161.44 357.159 161.44C357.151 161.44 357.143 161.44 357.135 161.44C357.128 161.44 357.12 161.44 357.112 161.44C357.104 161.44 357.096 161.44 357.088 161.44C357.08 161.44 357.072 161.44 357.064 161.44C357.056 161.44 357.048 161.44 357.04 161.44C357.032 161.44 357.024 161.44 357.016 161.44C357.008 161.44 357 161.44 356.992 161.44C356.984 161.44 356.976 161.44 356.968 161.44C356.96 161.44 356.952 161.44 356.944 161.44C356.936 161.44 356.928 161.44 356.92 161.44C356.912 161.44 356.904 161.44 356.896 161.44C356.888 161.44 356.88 161.44 356.872 161.44C356.865 161.44 356.857 161.44 356.849 161.44C356.841 161.44 356.833 161.44 356.825 161.44C356.817 161.44 356.809 161.44 356.801 161.44C356.793 161.44 356.785 161.44 356.777 161.44C356.769 161.44 356.761 161.44 356.753 161.44C356.745 161.44 356.737 161.44 356.729 161.44C356.721 161.44 356.713 161.44 356.705 161.44C356.697 161.44 356.689 161.44 356.681 161.44C356.673 161.44 356.665 161.44 356.657 161.44C356.649 161.44 356.641 161.44 356.633 161.44C356.625 161.44 356.617 161.44 356.61 161.44C356.602 161.44 356.594 161.44 356.586 161.44C356.578 161.44 356.57 161.44 356.562 161.44C356.554 161.44 356.546 161.44 356.538 161.44C356.53 161.44 356.522 161.44 356.514 161.44C356.506 161.44 356.498 161.44 356.49 161.44C356.482 161.44 356.474 161.44 356.466 161.44C356.458 161.44 356.45 161.44 356.442 161.44C356.434 161.44 356.426 161.44 356.418 161.44C356.41 161.44 356.402 161.44 356.394 161.44C356.386 161.44 356.378 161.44 356.37 161.44C356.362 161.44 356.355 161.44 356.347 161.44C356.339 161.44 356.331 161.44 356.323 161.44C356.315 161.44 356.307 161.44 356.299 161.44C356.291 161.44 356.283 161.44 356.275 161.44C356.267 161.44 356.259 161.44 356.251 161.44C356.243 161.44 356.235 161.44 356.227 161.44C356.219 161.44 356.211 161.44 356.203 161.44C356.195 161.44 356.187 161.44 356.179 161.44C356.171 161.44 356.163 161.44 356.155 161.44C356.147 161.44 356.139 161.44 356.131 161.44C356.123 161.44 356.115 161.44 356.107 161.44C356.1 161.44 356.092 161.44 356.084 161.44C356.076 161.44 356.068 161.44 356.06 161.44C356.052 161.44 356.044 161.44 356.036 161.44C356.028 161.44 356.02 161.44 356.012 161.44C356.004 161.44 355.996 161.44 355.988 161.44C355.98 161.44 355.972 161.44 355.964 161.44C355.956 161.44 355.948 161.44 355.94 161.44C355.932 161.44 355.924 161.44 355.916 161.44C355.908 161.44 355.9 161.44 355.892 161.44C355.884 161.44 355.876 161.44 355.868 161.44C355.86 161.44 355.853 161.44 355.845 161.44C355.837 161.44 355.829 161.44 355.821 161.44C355.813 161.44 355.805 161.44 355.797 161.44C355.789 161.44 355.781 161.44 355.773 161.44C355.765 161.44 355.757 161.44 355.749 161.44C355.741 161.44 355.733 161.44 355.725 161.44C355.717 161.44 355.709 161.44 355.701 161.44C355.693 161.44 355.685 161.44 355.677 161.44C355.669 161.44 355.661 161.44 355.653 161.44C355.645 161.44 355.637 161.44 355.629 161.44C355.621 161.44 355.613 161.44 355.605 161.44C355.598 161.44 355.59 161.44 355.582 161.44C355.574 161.44 355.566 161.44 355.558 161.44C355.55 161.44 355.542 161.44 355.534 161.44C355.526 161.44 355.518 161.44 355.51 161.44C355.502 161.44 355.494 161.44 355.486 161.44C355.478 161.44 355.47 161.44 355.462 161.44C355.454 161.44 355.446 161.44 355.438 161.44C355.43 161.44 355.422 161.44 355.414 161.44C355.406 161.44 355.398 161.44 355.39 161.44C355.382 161.44 355.374 161.44 355.366 161.44C355.358 161.44 355.35 161.44 355.342 161.44C355.335 161.44 355.327 161.44 355.319 161.44C355.311 161.44 355.303 161.44 355.295 161.44C355.287 161.44 355.279 161.44 355.271 161.44C355.263 161.44 355.255 161.44 355.247 161.44C355.239 161.44 355.231 161.44 355.223 161.44C355.215 161.44 355.207 161.44 355.199 161.44C355.191 161.44 355.183 161.44 355.175 161.44C355.167 161.44 355.159 161.44 355.151 161.44C355.143 161.44 355.135 161.44 355.127 161.44C355.119 161.44 355.111 161.44 355.103 161.44C355.095 161.44 355.087 161.44 355.08 161.44C355.072 161.44 355.064 161.44 355.056 161.44C355.048 161.44 355.04 161.44 355.032 161.44C355.024 161.44 355.016 161.44 355.008 161.44C355 161.44 354.992 161.44 354.984 161.44C354.976 161.44 354.968 161.44 354.96 161.44C354.952 161.44 354.944 161.44 354.936 161.44C354.928 161.44 354.92 161.44 354.912 161.44C354.904 161.44 354.896 161.44 354.888 161.44C354.88 161.44 354.872 161.44 354.864 161.44C354.856 161.44 354.848 161.44 354.84 161.44C354.832 161.44 354.825 161.44 354.817 161.44C354.809 161.44 354.801 161.44 354.793 161.44C354.785 161.44 354.777 161.44 354.769 161.44C354.761 161.44 354.753 161.44 354.745 161.44C354.737 161.44 354.729 161.44 354.721 161.44C354.713 161.44 354.705 161.44 354.697 161.44C354.689 161.44 354.681 161.44 354.673 161.44C354.665 161.44 354.657 161.44 354.649 161.44C354.641 161.44 354.633 161.44 354.625 161.44C354.617 161.44 354.609 161.44 354.601 161.44C354.593 161.44 354.585 161.44 354.577 161.44C354.57 161.44 354.562 161.44 354.554 161.44C354.546 161.44 354.538 161.44 354.53 161.44C354.522 161.44 354.514 161.44 354.506 161.44C354.498 161.44 354.49 161.44 354.482 161.44C354.474 161.44 354.466 161.44 354.458 161.44C354.45 161.44 354.442 161.44 354.434 161.44C354.426 161.44 354.418 161.44 354.41 161.44C354.402 161.44 354.394 161.44 354.386 161.44C354.378 161.44 354.37 161.44 354.362 161.44C354.354 161.44 354.346 161.44 354.338 161.44C354.33 161.44 354.323 161.44 354.315 161.44C354.307 161.44 354.299 161.44 354.291 161.44C354.283 161.44 354.275 161.44 354.267 161.44C354.259 161.44 354.251 161.44 354.243 161.44C354.235 161.44 354.227 161.44 354.219 161.44C354.211 161.44 354.203 161.44 354.195 161.44C354.187 161.44 354.179 161.44 354.171 161.44C354.163 161.44 354.155 161.44 354.147 161.44C354.139 161.44 354.131 161.44 354.123 161.44C354.115 161.44 354.107 161.44 354.099 161.44C354.091 161.44 354.083 161.44 354.075 161.44C354.068 161.44 354.06 161.44 354.052 161.44C354.044 161.44 354.036 161.44 354.028 161.44C354.02 161.44 354.012 161.44 354.004 161.44C353.996 161.44 353.988 161.44 353.98 161.44C353.972 161.44 353.964 161.44 353.956 161.44C353.948 161.44 353.94 161.44 353.932 161.44C353.924 161.44 353.916 161.44 353.908 161.44C353.9 161.44 353.892 161.44 353.884 161.44C353.876 161.44 353.868 161.44 353.86 161.44C353.852 161.44 353.844 161.44 353.836 161.44C353.828 161.44 353.82 161.44 353.812 161.44C353.805 161.44 353.797 161.44 353.789 161.44C353.781 161.44 353.773 161.44 353.765 161.44C353.757 161.44 353.749 161.44 353.741 161.44C353.733 161.44 353.725 161.44 353.717 161.44C353.709 161.44 353.701 161.44 353.693 161.44C353.685 161.44 353.677 161.44 353.669 161.44C353.661 161.44 353.653 161.44 353.645 161.44C353.637 161.44 353.629 161.44 353.621 161.44C353.613 161.44 353.605 161.44 353.597 161.44C353.589 161.44 353.581 161.44 353.573 161.44C353.565 161.44 353.557 161.44 353.55 161.44C353.542 161.44 353.534 161.44 353.526 161.44C353.518 161.44 353.51 161.44 353.502 161.44C353.494 161.44 353.486 161.44 353.478 161.44C353.47 161.44 353.462 161.44 353.454 161.44C353.446 161.44 353.438 161.44 353.43 161.44C353.422 161.44 353.414 161.44 353.406 161.44C353.398 161.44 353.39 161.44 353.382 161.44C353.374 161.44 353.366 161.44 353.358 161.44C353.35 161.44 353.342 161.44 353.334 161.44C353.326 161.44 353.318 161.44 353.31 161.44C353.302 161.44 353.295 161.44 353.287 161.44C353.279 161.44 353.271 161.44 353.263 161.44C353.255 161.44 353.247 161.44 353.239 161.44C353.231 161.44 353.223 161.44 353.215 161.44C353.207 161.44 353.199 161.44 353.191 161.44C353.183 161.44 353.175 161.44 353.167 161.44C353.159 161.44 353.151 161.44 353.143 161.44C353.135 161.44 353.127 161.44 353.119 161.44C353.111 161.44 353.103 161.44 353.095 161.44C353.087 161.44 353.079 161.44 353.071 161.44C353.063 161.44 353.055 161.44 353.047 161.44C353.04 161.44 353.032 161.44 353.024 161.44C353.016 161.44 353.008 161.44 353 161.44C352.992 161.44 352.984 161.44 352.976 161.44C352.968 161.44 352.96 161.44 352.952 161.44C352.944 161.44 352.936 161.44 352.928 161.44C352.92 161.44 352.912 161.44 352.904 161.44C352.896 161.44 352.888 161.44 352.88 161.44C352.872 161.44 352.864 161.44 352.856 161.44C352.848 161.44 352.84 161.44 352.832 161.44C352.824 161.44 352.816 161.44 352.808 161.44C352.8 161.44 352.793 161.44 352.785 161.44C352.777 161.44 352.769 161.44 352.761 161.44C352.753 161.44 352.745 161.44 352.737 161.44C352.729 161.44 352.721 161.44 352.713 161.44C352.705 161.44 352.697 161.44 352.689 161.44C352.681 161.44 352.673 161.44 352.665 161.44C352.657 161.44 352.649 161.44 352.641 161.44C352.633 161.44 352.625 161.44 352.617 161.44C352.609 161.44 352.601 161.44 352.593 161.44C352.585 161.44 352.577 161.44 352.569 161.44C352.561 161.44 352.553 161.44 352.545 161.44C352.538 161.44 352.53 161.44 352.522 161.44C352.514 161.44 352.506 161.44 352.498 161.44C352.49 161.44 352.482 161.44 352.474 161.44C352.466 161.44 352.458 161.44 352.45 161.44C352.442 161.44 352.434 161.44 352.426 161.44C352.418 161.44 352.41 161.44 352.402 161.44C352.394 161.44 352.386 161.44 352.378 161.44C352.37 161.44 352.362 161.44 352.354 161.44C352.346 161.44 352.338 161.44 352.33 161.44C352.322 161.44 352.314 161.44 352.306 161.44C352.298 161.44 352.29 161.44 352.283 161.44C352.275 161.44 352.267 161.44 352.259 161.44C352.251 161.44 352.243 161.44 352.235 161.44C352.227 161.44 352.219 161.44 352.211 161.44C352.203 161.44 352.195 161.44 352.187 161.44C352.179 161.44 352.171 161.44 352.163 161.44C352.155 161.44 352.147 161.44 352.139 161.44C352.131 161.44 352.123 161.44 352.115 161.44C352.107 161.44 352.099 161.44 352.091 161.44C352.083 161.44 352.075 161.44 352.067 161.44C352.059 161.44 352.051 161.44 352.043 161.44C352.035 161.44 352.027 161.44 352.02 161.44C352.012 161.44 352.004 161.44 351.996 161.44C351.988 161.44 351.98 161.44 351.972 161.44C351.964 161.44 351.956 161.44 351.948 161.44C351.94 161.44 351.932 161.44 351.924 161.44C351.916 161.44 351.908 161.44 351.9 161.44C351.892 161.44 351.884 161.44 351.876 161.44C351.868 161.44 351.86 161.44 351.852 161.44C351.844 161.44 351.836 161.44 351.828 161.44C351.82 161.44 351.812 161.44 351.804 161.44C351.796 161.44 351.788 161.44 351.78 161.44C351.772 161.44 351.765 161.44 351.757 161.44C351.749 161.44 351.741 161.44 351.733 161.44C351.725 161.44 351.717 161.44 351.709 161.44C351.701 161.44 351.693 161.44 351.685 161.44C351.677 161.44 351.669 161.44 351.661 161.44C351.653 161.44 351.645 161.44 351.637 161.44C351.629 161.44 351.621 161.44 351.613 161.44C351.605 161.44 351.597 161.44 351.589 161.44C351.581 161.44 351.573 161.44 351.565 161.44C351.557 161.44 351.549 161.44 351.541 161.44C351.533 161.44 351.525 161.44 351.517 161.44C351.51 161.44 351.502 161.44 351.494 161.44C351.486 161.44 351.478 161.44 351.47 161.44C351.462 161.44 351.454 161.44 351.446 161.44C351.438 161.44 351.43 161.44 351.422 161.44C351.414 161.44 351.406 161.44 351.398 161.44C351.39 161.44 351.382 161.44 351.374 161.44C351.366 161.44 351.358 161.44 351.35 161.44C351.342 161.44 351.334 161.44 351.326 161.44C351.318 161.44 351.31 161.44 351.302 161.44C351.294 161.44 351.286 161.44 351.278 161.44C351.27 161.44 351.263 161.44 351.255 161.44C351.247 161.44 351.239 161.44 351.231 161.44C351.223 161.44 351.215 161.44 351.207 161.44C351.199 161.44 351.191 161.44 351.183 161.44C351.175 161.44 351.167 161.44 351.159 161.44C351.151 161.44 351.143 161.44 351.135 161.44C351.127 161.44 351.119 161.44 351.111 161.44C351.103 161.44 351.095 161.44 351.087 161.44C351.079 161.44 351.071 161.44 351.063 161.44C351.055 161.44 351.047 161.44 351.039 161.44C351.031 161.44 351.023 161.44 351.015 161.44C351.008 161.44 351 161.44 350.992 161.44C350.984 161.44 350.976 161.44 350.968 161.44C350.96 161.44 350.952 161.44 350.944 161.44C350.936 161.44 350.928 161.44 350.92 161.44C350.912 161.44 350.904 161.44 350.896 161.44C350.888 161.44 350.88 161.44 350.872 161.44C350.864 161.44 350.856 161.44 350.848 161.44C350.84 161.44 350.832 161.44 350.824 161.44C350.816 161.44 350.808 161.44 350.8 161.44C350.792 161.44 350.784 161.44 350.776 161.44C350.768 161.44 350.76 161.44 350.753 161.44C350.745 161.44 350.737 161.44 350.729 161.44C350.721 161.44 350.713 161.44 350.705 161.44C350.697 161.44 350.689 161.44 350.681 161.44C350.673 161.44 350.665 161.44 350.657 161.44C350.649 161.44 350.641 161.44 350.633 161.44C350.625 161.44 350.617 161.44 350.609 161.44C350.601 161.44 350.593 161.44 350.585 161.44C350.577 161.44 350.569 161.44 350.561 161.44C350.553 161.44 350.545 161.44 350.537 161.44C350.529 161.44 350.521 161.44 350.513 161.44C350.505 161.44 350.497 161.44 350.49 161.44C350.482 161.44 350.474 161.44 350.466 161.44C350.458 161.44 350.45 161.44 350.442 161.44C350.434 161.44 350.426 161.44 350.418 161.44C350.41 161.44 350.402 161.44 350.394 161.44C350.386 161.44 350.378 161.44 350.37 161.44C350.362 161.44 350.354 161.44 350.346 161.44C350.338 161.44 350.33 161.44 350.322 161.44C350.314 161.44 350.306 161.44 350.298 161.44C350.29 161.44 350.282 161.44 350.274 161.44C350.266 161.44 350.258 161.44 350.25 161.44C350.242 161.44 350.235 161.44 350.227 161.44C350.219 161.44 350.211 161.44 350.203 161.44C350.195 161.44 350.187 161.44 350.179 161.44C350.171 161.44 350.163 161.44 350.155 161.44C350.147 161.44 350.139 161.44 350.131 161.44C350.123 161.44 350.115 161.44 350.107 161.44C350.099 161.44 350.091 161.44 350.083 161.44C350.075 161.44 350.067 161.44 350.059 161.44C350.051 161.44 350.043 161.44 350.035 161.44C350.027 161.44 350.019 161.44 350.011 161.44C350.003 161.44 349.995 161.44 349.987 161.44C349.98 161.44 349.972 161.44 349.964 161.44C349.956 161.44 349.948 161.44 349.94 161.44C349.932 161.44 349.924 161.44 349.916 161.44C349.908 161.44 349.9 161.44 349.892 161.44C349.884 161.44 349.876 161.44 349.868 161.44C349.86 161.44 349.852 161.44 349.844 161.44C349.836 161.44 349.828 161.44 349.82 161.44C349.812 161.44 349.804 161.44 349.796 161.44V163.44C349.804 163.44 349.812 163.44 349.82 163.44C349.828 163.44 349.836 163.44 349.844 163.44C349.852 163.44 349.86 163.44 349.868 163.44C349.876 163.44 349.884 163.44 349.892 163.44C349.9 163.44 349.908 163.44 349.916 163.44C349.924 163.44 349.932 163.44 349.94 163.44C349.948 163.44 349.956 163.44 349.964 163.44C349.972 163.44 349.98 163.44 349.987 163.44C349.995 163.44 350.003 163.44 350.011 163.44C350.019 163.44 350.027 163.44 350.035 163.44C350.043 163.44 350.051 163.44 350.059 163.44C350.067 163.44 350.075 163.44 350.083 163.44C350.091 163.44 350.099 163.44 350.107 163.44C350.115 163.44 350.123 163.44 350.131 163.44C350.139 163.44 350.147 163.44 350.155 163.44C350.163 163.44 350.171 163.44 350.179 163.44C350.187 163.44 350.195 163.44 350.203 163.44C350.211 163.44 350.219 163.44 350.227 163.44C350.235 163.44 350.242 163.44 350.25 163.44C350.258 163.44 350.266 163.44 350.274 163.44C350.282 163.44 350.29 163.44 350.298 163.44C350.306 163.44 350.314 163.44 350.322 163.44C350.33 163.44 350.338 163.44 350.346 163.44C350.354 163.44 350.362 163.44 350.37 163.44C350.378 163.44 350.386 163.44 350.394 163.44C350.402 163.44 350.41 163.44 350.418 163.44C350.426 163.44 350.434 163.44 350.442 163.44C350.45 163.44 350.458 163.44 350.466 163.44C350.474 163.44 350.482 163.44 350.49 163.44C350.497 163.44 350.505 163.44 350.513 163.44C350.521 163.44 350.529 163.44 350.537 163.44C350.545 163.44 350.553 163.44 350.561 163.44C350.569 163.44 350.577 163.44 350.585 163.44C350.593 163.44 350.601 163.44 350.609 163.44C350.617 163.44 350.625 163.44 350.633 163.44C350.641 163.44 350.649 163.44 350.657 163.44C350.665 163.44 350.673 163.44 350.681 163.44C350.689 163.44 350.697 163.44 350.705 163.44C350.713 163.44 350.721 163.44 350.729 163.44C350.737 163.44 350.745 163.44 350.753 163.44C350.76 163.44 350.768 163.44 350.776 163.44C350.784 163.44 350.792 163.44 350.8 163.44C350.808 163.44 350.816 163.44 350.824 163.44C350.832 163.44 350.84 163.44 350.848 163.44C350.856 163.44 350.864 163.44 350.872 163.44C350.88 163.44 350.888 163.44 350.896 163.44C350.904 163.44 350.912 163.44 350.92 163.44C350.928 163.44 350.936 163.44 350.944 163.44C350.952 163.44 350.96 163.44 350.968 163.44C350.976 163.44 350.984 163.44 350.992 163.44C351 163.44 351.008 163.44 351.015 163.44C351.023 163.44 351.031 163.44 351.039 163.44C351.047 163.44 351.055 163.44 351.063 163.44C351.071 163.44 351.079 163.44 351.087 163.44C351.095 163.44 351.103 163.44 351.111 163.44C351.119 163.44 351.127 163.44 351.135 163.44C351.143 163.44 351.151 163.44 351.159 163.44C351.167 163.44 351.175 163.44 351.183 163.44C351.191 163.44 351.199 163.44 351.207 163.44C351.215 163.44 351.223 163.44 351.231 163.44C351.239 163.44 351.247 163.44 351.255 163.44C351.263 163.44 351.27 163.44 351.278 163.44C351.286 163.44 351.294 163.44 351.302 163.44C351.31 163.44 351.318 163.44 351.326 163.44C351.334 163.44 351.342 163.44 351.35 163.44C351.358 163.44 351.366 163.44 351.374 163.44C351.382 163.44 351.39 163.44 351.398 163.44C351.406 163.44 351.414 163.44 351.422 163.44C351.43 163.44 351.438 163.44 351.446 163.44C351.454 163.44 351.462 163.44 351.47 163.44C351.478 163.44 351.486 163.44 351.494 163.44C351.502 163.44 351.51 163.44 351.517 163.44C351.525 163.44 351.533 163.44 351.541 163.44C351.549 163.44 351.557 163.44 351.565 163.44C351.573 163.44 351.581 163.44 351.589 163.44C351.597 163.44 351.605 163.44 351.613 163.44C351.621 163.44 351.629 163.44 351.637 163.44C351.645 163.44 351.653 163.44 351.661 163.44C351.669 163.44 351.677 163.44 351.685 163.44C351.693 163.44 351.701 163.44 351.709 163.44C351.717 163.44 351.725 163.44 351.733 163.44C351.741 163.44 351.749 163.44 351.757 163.44C351.765 163.44 351.772 163.44 351.78 163.44C351.788 163.44 351.796 163.44 351.804 163.44C351.812 163.44 351.82 163.44 351.828 163.44C351.836 163.44 351.844 163.44 351.852 163.44C351.86 163.44 351.868 163.44 351.876 163.44C351.884 163.44 351.892 163.44 351.9 163.44C351.908 163.44 351.916 163.44 351.924 163.44C351.932 163.44 351.94 163.44 351.948 163.44C351.956 163.44 351.964 163.44 351.972 163.44C351.98 163.44 351.988 163.44 351.996 163.44C352.004 163.44 352.012 163.44 352.02 163.44C352.027 163.44 352.035 163.44 352.043 163.44C352.051 163.44 352.059 163.44 352.067 163.44C352.075 163.44 352.083 163.44 352.091 163.44C352.099 163.44 352.107 163.44 352.115 163.44C352.123 163.44 352.131 163.44 352.139 163.44C352.147 163.44 352.155 163.44 352.163 163.44C352.171 163.44 352.179 163.44 352.187 163.44C352.195 163.44 352.203 163.44 352.211 163.44C352.219 163.44 352.227 163.44 352.235 163.44C352.243 163.44 352.251 163.44 352.259 163.44C352.267 163.44 352.275 163.44 352.283 163.44C352.29 163.44 352.298 163.44 352.306 163.44C352.314 163.44 352.322 163.44 352.33 163.44C352.338 163.44 352.346 163.44 352.354 163.44C352.362 163.44 352.37 163.44 352.378 163.44C352.386 163.44 352.394 163.44 352.402 163.44C352.41 163.44 352.418 163.44 352.426 163.44C352.434 163.44 352.442 163.44 352.45 163.44C352.458 163.44 352.466 163.44 352.474 163.44C352.482 163.44 352.49 163.44 352.498 163.44C352.506 163.44 352.514 163.44 352.522 163.44C352.53 163.44 352.538 163.44 352.545 163.44C352.553 163.44 352.561 163.44 352.569 163.44C352.577 163.44 352.585 163.44 352.593 163.44C352.601 163.44 352.609 163.44 352.617 163.44C352.625 163.44 352.633 163.44 352.641 163.44C352.649 163.44 352.657 163.44 352.665 163.44C352.673 163.44 352.681 163.44 352.689 163.44C352.697 163.44 352.705 163.44 352.713 163.44C352.721 163.44 352.729 163.44 352.737 163.44C352.745 163.44 352.753 163.44 352.761 163.44C352.769 163.44 352.777 163.44 352.785 163.44C352.793 163.44 352.8 163.44 352.808 163.44C352.816 163.44 352.824 163.44 352.832 163.44C352.84 163.44 352.848 163.44 352.856 163.44C352.864 163.44 352.872 163.44 352.88 163.44C352.888 163.44 352.896 163.44 352.904 163.44C352.912 163.44 352.92 163.44 352.928 163.44C352.936 163.44 352.944 163.44 352.952 163.44C352.96 163.44 352.968 163.44 352.976 163.44C352.984 163.44 352.992 163.44 353 163.44C353.008 163.44 353.016 163.44 353.024 163.44C353.032 163.44 353.04 163.44 353.047 163.44C353.055 163.44 353.063 163.44 353.071 163.44C353.079 163.44 353.087 163.44 353.095 163.44C353.103 163.44 353.111 163.44 353.119 163.44C353.127 163.44 353.135 163.44 353.143 163.44C353.151 163.44 353.159 163.44 353.167 163.44C353.175 163.44 353.183 163.44 353.191 163.44C353.199 163.44 353.207 163.44 353.215 163.44C353.223 163.44 353.231 163.44 353.239 163.44C353.247 163.44 353.255 163.44 353.263 163.44C353.271 163.44 353.279 163.44 353.287 163.44C353.295 163.44 353.302 163.44 353.31 163.44C353.318 163.44 353.326 163.44 353.334 163.44C353.342 163.44 353.35 163.44 353.358 163.44C353.366 163.44 353.374 163.44 353.382 163.44C353.39 163.44 353.398 163.44 353.406 163.44C353.414 163.44 353.422 163.44 353.43 163.44C353.438 163.44 353.446 163.44 353.454 163.44C353.462 163.44 353.47 163.44 353.478 163.44C353.486 163.44 353.494 163.44 353.502 163.44C353.51 163.44 353.518 163.44 353.526 163.44C353.534 163.44 353.542 163.44 353.55 163.44C353.557 163.44 353.565 163.44 353.573 163.44C353.581 163.44 353.589 163.44 353.597 163.44C353.605 163.44 353.613 163.44 353.621 163.44C353.629 163.44 353.637 163.44 353.645 163.44C353.653 163.44 353.661 163.44 353.669 163.44C353.677 163.44 353.685 163.44 353.693 163.44C353.701 163.44 353.709 163.44 353.717 163.44C353.725 163.44 353.733 163.44 353.741 163.44C353.749 163.44 353.757 163.44 353.765 163.44C353.773 163.44 353.781 163.44 353.789 163.44C353.797 163.44 353.805 163.44 353.812 163.44C353.82 163.44 353.828 163.44 353.836 163.44C353.844 163.44 353.852 163.44 353.86 163.44C353.868 163.44 353.876 163.44 353.884 163.44C353.892 163.44 353.9 163.44 353.908 163.44C353.916 163.44 353.924 163.44 353.932 163.44C353.94 163.44 353.948 163.44 353.956 163.44C353.964 163.44 353.972 163.44 353.98 163.44C353.988 163.44 353.996 163.44 354.004 163.44C354.012 163.44 354.02 163.44 354.028 163.44C354.036 163.44 354.044 163.44 354.052 163.44C354.06 163.44 354.068 163.44 354.075 163.44C354.083 163.44 354.091 163.44 354.099 163.44C354.107 163.44 354.115 163.44 354.123 163.44C354.131 163.44 354.139 163.44 354.147 163.44C354.155 163.44 354.163 163.44 354.171 163.44C354.179 163.44 354.187 163.44 354.195 163.44C354.203 163.44 354.211 163.44 354.219 163.44C354.227 163.44 354.235 163.44 354.243 163.44C354.251 163.44 354.259 163.44 354.267 163.44C354.275 163.44 354.283 163.44 354.291 163.44C354.299 163.44 354.307 163.44 354.315 163.44C354.323 163.44 354.33 163.44 354.338 163.44C354.346 163.44 354.354 163.44 354.362 163.44C354.37 163.44 354.378 163.44 354.386 163.44C354.394 163.44 354.402 163.44 354.41 163.44C354.418 163.44 354.426 163.44 354.434 163.44C354.442 163.44 354.45 163.44 354.458 163.44C354.466 163.44 354.474 163.44 354.482 163.44C354.49 163.44 354.498 163.44 354.506 163.44C354.514 163.44 354.522 163.44 354.53 163.44C354.538 163.44 354.546 163.44 354.554 163.44C354.562 163.44 354.57 163.44 354.577 163.44C354.585 163.44 354.593 163.44 354.601 163.44C354.609 163.44 354.617 163.44 354.625 163.44C354.633 163.44 354.641 163.44 354.649 163.44C354.657 163.44 354.665 163.44 354.673 163.44C354.681 163.44 354.689 163.44 354.697 163.44C354.705 163.44 354.713 163.44 354.721 163.44C354.729 163.44 354.737 163.44 354.745 163.44C354.753 163.44 354.761 163.44 354.769 163.44C354.777 163.44 354.785 163.44 354.793 163.44C354.801 163.44 354.809 163.44 354.817 163.44C354.825 163.44 354.832 163.44 354.84 163.44C354.848 163.44 354.856 163.44 354.864 163.44C354.872 163.44 354.88 163.44 354.888 163.44C354.896 163.44 354.904 163.44 354.912 163.44C354.92 163.44 354.928 163.44 354.936 163.44C354.944 163.44 354.952 163.44 354.96 163.44C354.968 163.44 354.976 163.44 354.984 163.44C354.992 163.44 355 163.44 355.008 163.44C355.016 163.44 355.024 163.44 355.032 163.44C355.04 163.44 355.048 163.44 355.056 163.44C355.064 163.44 355.072 163.44 355.08 163.44C355.087 163.44 355.095 163.44 355.103 163.44C355.111 163.44 355.119 163.44 355.127 163.44C355.135 163.44 355.143 163.44 355.151 163.44C355.159 163.44 355.167 163.44 355.175 163.44C355.183 163.44 355.191 163.44 355.199 163.44C355.207 163.44 355.215 163.44 355.223 163.44C355.231 163.44 355.239 163.44 355.247 163.44C355.255 163.44 355.263 163.44 355.271 163.44C355.279 163.44 355.287 163.44 355.295 163.44C355.303 163.44 355.311 163.44 355.319 163.44C355.327 163.44 355.335 163.44 355.342 163.44C355.35 163.44 355.358 163.44 355.366 163.44C355.374 163.44 355.382 163.44 355.39 163.44C355.398 163.44 355.406 163.44 355.414 163.44C355.422 163.44 355.43 163.44 355.438 163.44C355.446 163.44 355.454 163.44 355.462 163.44C355.47 163.44 355.478 163.44 355.486 163.44C355.494 163.44 355.502 163.44 355.51 163.44C355.518 163.44 355.526 163.44 355.534 163.44C355.542 163.44 355.55 163.44 355.558 163.44C355.566 163.44 355.574 163.44 355.582 163.44C355.59 163.44 355.598 163.44 355.605 163.44C355.613 163.44 355.621 163.44 355.629 163.44C355.637 163.44 355.645 163.44 355.653 163.44C355.661 163.44 355.669 163.44 355.677 163.44C355.685 163.44 355.693 163.44 355.701 163.44C355.709 163.44 355.717 163.44 355.725 163.44C355.733 163.44 355.741 163.44 355.749 163.44C355.757 163.44 355.765 163.44 355.773 163.44C355.781 163.44 355.789 163.44 355.797 163.44C355.805 163.44 355.813 163.44 355.821 163.44C355.829 163.44 355.837 163.44 355.845 163.44C355.853 163.44 355.86 163.44 355.868 163.44C355.876 163.44 355.884 163.44 355.892 163.44C355.9 163.44 355.908 163.44 355.916 163.44C355.924 163.44 355.932 163.44 355.94 163.44C355.948 163.44 355.956 163.44 355.964 163.44C355.972 163.44 355.98 163.44 355.988 163.44C355.996 163.44 356.004 163.44 356.012 163.44C356.02 163.44 356.028 163.44 356.036 163.44C356.044 163.44 356.052 163.44 356.06 163.44C356.068 163.44 356.076 163.44 356.084 163.44C356.092 163.44 356.1 163.44 356.107 163.44C356.115 163.44 356.123 163.44 356.131 163.44C356.139 163.44 356.147 163.44 356.155 163.44C356.163 163.44 356.171 163.44 356.179 163.44C356.187 163.44 356.195 163.44 356.203 163.44C356.211 163.44 356.219 163.44 356.227 163.44C356.235 163.44 356.243 163.44 356.251 163.44C356.259 163.44 356.267 163.44 356.275 163.44C356.283 163.44 356.291 163.44 356.299 163.44C356.307 163.44 356.315 163.44 356.323 163.44C356.331 163.44 356.339 163.44 356.347 163.44C356.355 163.44 356.362 163.44 356.37 163.44C356.378 163.44 356.386 163.44 356.394 163.44C356.402 163.44 356.41 163.44 356.418 163.44C356.426 163.44 356.434 163.44 356.442 163.44C356.45 163.44 356.458 163.44 356.466 163.44C356.474 163.44 356.482 163.44 356.49 163.44C356.498 163.44 356.506 163.44 356.514 163.44C356.522 163.44 356.53 163.44 356.538 163.44C356.546 163.44 356.554 163.44 356.562 163.44C356.57 163.44 356.578 163.44 356.586 163.44C356.594 163.44 356.602 163.44 356.61 163.44C356.617 163.44 356.625 163.44 356.633 163.44C356.641 163.44 356.649 163.44 356.657 163.44C356.665 163.44 356.673 163.44 356.681 163.44C356.689 163.44 356.697 163.44 356.705 163.44C356.713 163.44 356.721 163.44 356.729 163.44C356.737 163.44 356.745 163.44 356.753 163.44C356.761 163.44 356.769 163.44 356.777 163.44C356.785 163.44 356.793 163.44 356.801 163.44C356.809 163.44 356.817 163.44 356.825 163.44C356.833 163.44 356.841 163.44 356.849 163.44C356.857 163.44 356.865 163.44 356.872 163.44C356.88 163.44 356.888 163.44 356.896 163.44C356.904 163.44 356.912 163.44 356.92 163.44C356.928 163.44 356.936 163.44 356.944 163.44C356.952 163.44 356.96 163.44 356.968 163.44C356.976 163.44 356.984 163.44 356.992 163.44C357 163.44 357.008 163.44 357.016 163.44C357.024 163.44 357.032 163.44 357.04 163.44C357.048 163.44 357.056 163.44 357.064 163.44C357.072 163.44 357.08 163.44 357.088 163.44C357.096 163.44 357.104 163.44 357.112 163.44C357.12 163.44 357.128 163.44 357.135 163.44C357.143 163.44 357.151 163.44 357.159 163.44C357.167 163.44 357.175 163.44 357.183 163.44C357.191 163.44 357.199 163.44 357.207 163.44C357.215 163.44 357.223 163.44 357.231 163.44C357.239 163.44 357.247 163.44 357.255 163.44C357.263 163.44 357.271 163.44 357.279 163.44C357.287 163.44 357.295 163.44 357.303 163.44C357.311 163.44 357.319 163.44 357.327 163.44C357.335 163.44 357.343 163.44 357.351 163.44C357.359 163.44 357.367 163.44 357.375 163.44C357.383 163.44 357.39 163.44 357.398 163.44C357.406 163.44 357.414 163.44 357.422 163.44C357.43 163.44 357.438 163.44 357.446 163.44C357.454 163.44 357.462 163.44 357.47 163.44C357.478 163.44 357.486 163.44 357.494 163.44C357.502 163.44 357.51 163.44 357.518 163.44C357.526 163.44 357.534 163.44 357.542 163.44C357.55 163.44 357.558 163.44 357.566 163.44C357.574 163.44 357.582 163.44 357.59 163.44C357.598 163.44 357.606 163.44 357.614 163.44C357.622 163.44 357.63 163.44 357.637 163.44C357.645 163.44 357.653 163.44 357.661 163.44C357.669 163.44 357.677 163.44 357.685 163.44C357.693 163.44 357.701 163.44 357.709 163.44C357.717 163.44 357.725 163.44 357.733 163.44C357.741 163.44 357.749 163.44 357.757 163.44C357.765 163.44 357.773 163.44 357.781 163.44C357.789 163.44 357.797 163.44 357.805 163.44C357.813 163.44 357.821 163.44 357.829 163.44C357.837 163.44 357.845 163.44 357.853 163.44C357.861 163.44 357.869 163.44 357.877 163.44C357.885 163.44 357.892 163.44 357.9 163.44C357.908 163.44 357.916 163.44 357.924 163.44C357.932 163.44 357.94 163.44 357.948 163.44C357.956 163.44 357.964 163.44 357.972 163.44C357.98 163.44 357.988 163.44 357.996 163.44C358.004 163.44 358.012 163.44 358.02 163.44C358.028 163.44 358.036 163.44 358.044 163.44C358.052 163.44 358.06 163.44 358.068 163.44C358.076 163.44 358.084 163.44 358.092 163.44C358.1 163.44 358.108 163.44 358.116 163.44C358.124 163.44 358.132 163.44 358.14 163.44C358.147 163.44 358.155 163.44 358.163 163.44C358.171 163.44 358.179 163.44 358.187 163.44C358.195 163.44 358.203 163.44 358.211 163.44C358.219 163.44 358.227 163.44 358.235 163.44C358.243 163.44 358.251 163.44 358.259 163.44C358.267 163.44 358.275 163.44 358.283 163.44C358.291 163.44 358.299 163.44 358.307 163.44C358.315 163.44 358.323 163.44 358.331 163.44C358.339 163.44 358.347 163.44 358.355 163.44C358.363 163.44 358.371 163.44 358.379 163.44C358.387 163.44 358.395 163.44 358.402 163.44C358.41 163.44 358.418 163.44 358.426 163.44C358.434 163.44 358.442 163.44 358.45 163.44C358.458 163.44 358.466 163.44 358.474 163.44C358.482 163.44 358.49 163.44 358.498 163.44C358.506 163.44 358.514 163.44 358.522 163.44C358.53 163.44 358.538 163.44 358.546 163.44C358.554 163.44 358.562 163.44 358.57 163.44C358.578 163.44 358.586 163.44 358.594 163.44C358.602 163.44 358.61 163.44 358.618 163.44C358.626 163.44 358.634 163.44 358.642 163.44C358.65 163.44 358.658 163.44 358.665 163.44C358.673 163.44 358.681 163.44 358.689 163.44C358.697 163.44 358.705 163.44 358.713 163.44C358.721 163.44 358.729 163.44 358.737 163.44C358.745 163.44 358.753 163.44 358.761 163.44C358.769 163.44 358.777 163.44 358.785 163.44C358.793 163.44 358.801 163.44 358.809 163.44C358.817 163.44 358.825 163.44 358.833 163.44C358.841 163.44 358.849 163.44 358.857 163.44C358.865 163.44 358.873 163.44 358.881 163.44C358.889 163.44 358.897 163.44 358.905 163.44C358.913 163.44 358.92 163.44 358.928 163.44C358.936 163.44 358.944 163.44 358.952 163.44C358.96 163.44 358.968 163.44 358.976 163.44C358.984 163.44 358.992 163.44 359 163.44C359.008 163.44 359.016 163.44 359.024 163.44C359.032 163.44 359.04 163.44 359.048 163.44C359.056 163.44 359.064 163.44 359.072 163.44C359.08 163.44 359.088 163.44 359.096 163.44C359.104 163.44 359.112 163.44 359.12 163.44C359.128 163.44 359.136 163.44 359.144 163.44C359.152 163.44 359.16 163.44 359.168 163.44C359.175 163.44 359.183 163.44 359.191 163.44C359.199 163.44 359.207 163.44 359.215 163.44C359.223 163.44 359.231 163.44 359.239 163.44C359.247 163.44 359.255 163.44 359.263 163.44C359.271 163.44 359.279 163.44 359.287 163.44C359.295 163.44 359.303 163.44 359.311 163.44C359.319 163.44 359.327 163.44 359.335 163.44C359.343 163.44 359.351 163.44 359.359 163.44C359.367 163.44 359.375 163.44 359.383 163.44C359.391 163.44 359.399 163.44 359.407 163.44C359.415 163.44 359.422 163.44 359.43 163.44C359.438 163.44 359.446 163.44 359.454 163.44C359.462 163.44 359.47 163.44 359.478 163.44C359.486 163.44 359.494 163.44 359.502 163.44C359.51 163.44 359.518 163.44 359.526 163.44C359.534 163.44 359.542 163.44 359.55 163.44C359.558 163.44 359.566 163.44 359.574 163.44C359.582 163.44 359.59 163.44 359.598 163.44C359.606 163.44 359.614 163.44 359.622 163.44C359.63 163.44 359.638 163.44 359.646 163.44C359.654 163.44 359.662 163.44 359.67 163.44C359.677 163.44 359.685 163.44 359.693 163.44C359.701 163.44 359.709 163.44 359.717 163.44C359.725 163.44 359.733 163.44 359.741 163.44C359.749 163.44 359.757 163.44 359.765 163.44C359.773 163.44 359.781 163.44 359.789 163.44C359.797 163.44 359.805 163.44 359.813 163.44C359.821 163.44 359.829 163.44 359.837 163.44C359.845 163.44 359.853 163.44 359.861 163.44C359.869 163.44 359.877 163.44 359.885 163.44C359.893 163.44 359.901 163.44 359.909 163.44C359.917 163.44 359.925 163.44 359.932 163.44C359.94 163.44 359.948 163.44 359.956 163.44C359.964 163.44 359.972 163.44 359.98 163.44C359.988 163.44 359.996 163.44 360.004 163.44C360.012 163.44 360.02 163.44 360.028 163.44C360.036 163.44 360.044 163.44 360.052 163.44C360.06 163.44 360.068 163.44 360.076 163.44C360.084 163.44 360.092 163.44 360.1 163.44C360.108 163.44 360.116 163.44 360.124 163.44C360.132 163.44 360.14 163.44 360.148 163.44C360.156 163.44 360.164 163.44 360.172 163.44C360.18 163.44 360.188 163.44 360.195 163.44C360.203 163.44 360.211 163.44 360.219 163.44C360.227 163.44 360.235 163.44 360.243 163.44C360.251 163.44 360.259 163.44 360.267 163.44C360.275 163.44 360.283 163.44 360.291 163.44C360.299 163.44 360.307 163.44 360.315 163.44C360.323 163.44 360.331 163.44 360.339 163.44C360.347 163.44 360.355 163.44 360.363 163.44C360.371 163.44 360.379 163.44 360.387 163.44C360.395 163.44 360.403 163.44 360.411 163.44C360.419 163.44 360.427 163.44 360.435 163.44C360.443 163.44 360.45 163.44 360.458 163.44C360.466 163.44 360.474 163.44 360.482 163.44C360.49 163.44 360.498 163.44 360.506 163.44C360.514 163.44 360.522 163.44 360.53 163.44C360.538 163.44 360.546 163.44 360.554 163.44C360.562 163.44 360.57 163.44 360.578 163.44C360.586 163.44 360.594 163.44 360.602 163.44C360.61 163.44 360.618 163.44 360.626 163.44C360.634 163.44 360.642 163.44 360.65 163.44C360.658 163.44 360.666 163.44 360.674 163.44C360.682 163.44 360.69 163.44 360.698 163.44C360.705 163.44 360.713 163.44 360.721 163.44C360.729 163.44 360.737 163.44 360.745 163.44C360.753 163.44 360.761 163.44 360.769 163.44C360.777 163.44 360.785 163.44 360.793 163.44C360.801 163.44 360.809 163.44 360.817 163.44C360.825 163.44 360.833 163.44 360.841 163.44C360.849 163.44 360.857 163.44 360.865 163.44C360.873 163.44 360.881 163.44 360.889 163.44C360.897 163.44 360.905 163.44 360.913 163.44C360.921 163.44 360.929 163.44 360.937 163.44C360.945 163.44 360.952 163.44 360.96 163.44C360.968 163.44 360.976 163.44 360.984 163.44C360.992 163.44 361 163.44 361.008 163.44C361.016 163.44 361.024 163.44 361.032 163.44C361.04 163.44 361.048 163.44 361.056 163.44C361.064 163.44 361.072 163.44 361.08 163.44C361.088 163.44 361.096 163.44 361.104 163.44C361.112 163.44 361.12 163.44 361.128 163.44C361.136 163.44 361.144 163.44 361.152 163.44C361.16 163.44 361.168 163.44 361.176 163.44C361.184 163.44 361.192 163.44 361.2 163.44C361.207 163.44 361.215 163.44 361.223 163.44C361.231 163.44 361.239 163.44 361.247 163.44C361.255 163.44 361.263 163.44 361.271 163.44C361.279 163.44 361.287 163.44 361.295 163.44C361.303 163.44 361.311 163.44 361.319 163.44C361.327 163.44 361.335 163.44 361.343 163.44C361.351 163.44 361.359 163.44 361.367 163.44C361.375 163.44 361.383 163.44 361.391 163.44C361.399 163.44 361.407 163.44 361.415 163.44C361.423 163.44 361.431 163.44 361.439 163.44C361.447 163.44 361.455 163.44 361.462 163.44C361.47 163.44 361.478 163.44 361.486 163.44C361.494 163.44 361.502 163.44 361.51 163.44C361.518 163.44 361.526 163.44 361.534 163.44C361.542 163.44 361.55 163.44 361.558 163.44C361.566 163.44 361.574 163.44 361.582 163.44C361.59 163.44 361.598 163.44 361.606 163.44C361.614 163.44 361.622 163.44 361.63 163.44C361.638 163.44 361.646 163.44 361.654 163.44C361.662 163.44 361.67 163.44 361.678 163.44C361.686 163.44 361.694 163.44 361.702 163.44C361.71 163.44 361.717 163.44 361.725 163.44C361.733 163.44 361.741 163.44 361.749 163.44C361.757 163.44 361.765 163.44 361.773 163.44C361.781 163.44 361.789 163.44 361.797 163.44C361.805 163.44 361.813 163.44 361.821 163.44C361.829 163.44 361.837 163.44 361.845 163.44C361.853 163.44 361.861 163.44 361.869 163.44C361.877 163.44 361.885 163.44 361.893 163.44C361.901 163.44 361.909 163.44 361.917 163.44C361.925 163.44 361.933 163.44 361.941 163.44C361.949 163.44 361.957 163.44 361.965 163.44C361.973 163.44 361.98 163.44 361.988 163.44C361.996 163.44 362.004 163.44 362.012 163.44C362.02 163.44 362.028 163.44 362.036 163.44V161.44ZM348.796 162.44V269H350.796V162.44H348.796ZM758.281 9.07998H759.281V8.07998H758.281V9.07998ZM758.281 269V270H759.281V269H758.281ZM719.401 269H718.401V270H719.401V269ZM719.401 65.96H720.401V64.96H719.401V65.96ZM718.681 65.96V64.96H717.86L717.7 65.7652L718.681 65.96ZM678.361 269V270H679.182L679.342 269.195L678.361 269ZM656.761 269L655.78 269.195L655.94 270H656.761V269ZM616.441 65.96L617.422 65.7652L617.262 64.96H616.441V65.96ZM615.721 65.96V64.96H614.721V65.96H615.721ZM615.721 269V270H616.721V269H615.721ZM576.841 269H575.841V270H576.841V269ZM576.841 9.07998V8.07998H575.841V9.07998H576.841ZM635.521 9.07998L636.5 8.87584L636.334 8.07998H635.521V9.07998ZM667.201 161L666.222 161.204L666.388 162H667.201V161ZM667.921 161V162H668.734L668.9 161.204L667.921 161ZM699.601 9.07998V8.07998H698.788L698.622 8.87584L699.601 9.07998ZM757.281 9.07998V269H759.281V9.07998H757.281ZM758.281 268H719.401V270H758.281V268ZM720.401 269V65.96H718.401V269H720.401ZM719.401 64.96H718.681V66.96H719.401V64.96ZM717.7 65.7652L677.38 268.805L679.342 269.195L719.662 66.1548L717.7 65.7652ZM678.361 268H656.761V270H678.361V268ZM657.742 268.805L617.422 65.7652L615.46 66.1548L655.78 269.195L657.742 268.805ZM616.441 64.96H615.721V66.96H616.441V64.96ZM614.721 65.96V269H616.721V65.96H614.721ZM615.721 268H576.841V270H615.721V268ZM577.841 269V9.07998H575.841V269H577.841ZM576.841 10.08H635.521V8.07998H576.841V10.08ZM634.542 9.28412L666.222 161.204L668.18 160.796L636.5 8.87584L634.542 9.28412ZM667.201 162H667.921V160H667.201V162ZM668.9 161.204L700.58 9.28412L698.622 8.87584L666.942 160.796L668.9 161.204ZM699.601 10.08H758.281V8.07998H699.601V10.08ZM846.959 172.52L845.971 172.364L845.789 173.52H846.959V172.52ZM882.959 172.52V173.52H884.13L883.947 172.364L882.959 172.52ZM865.319 60.92L866.307 60.7639L866.173 59.92H865.319V60.92ZM864.599 60.92V59.92H863.745L863.611 60.7639L864.599 60.92ZM832.559 269V270H833.431L833.55 269.136L832.559 269ZM789.359 269L788.376 268.819L788.158 270H789.359V269ZM837.239 9.07998V8.07998H836.406L836.256 8.89881L837.239 9.07998ZM892.679 9.07998L893.663 8.89881L893.512 8.07998H892.679V9.07998ZM940.559 269V270H941.76L941.543 268.819L940.559 269ZM897.359 269L896.368 269.136L896.487 270H897.359V269ZM889.439 211.4L890.43 211.264L890.311 210.4H889.439V211.4ZM840.479 211.4V210.4H839.607L839.488 211.264L840.479 211.4ZM846.959 173.52H882.959V171.52H846.959V173.52ZM883.947 172.364L866.307 60.7639L864.331 61.0761L881.971 172.676L883.947 172.364ZM865.319 59.92H864.599V61.92H865.319V59.92ZM863.611 60.7639L845.971 172.364L847.947 172.676L865.587 61.0761L863.611 60.7639ZM832.559 268H789.359V270H832.559V268ZM790.343 269.181L838.223 9.26114L836.256 8.89881L788.376 268.819L790.343 269.181ZM837.239 10.08H892.679V8.07998H837.239V10.08ZM891.696 9.26114L939.576 269.181L941.543 268.819L893.663 8.89881L891.696 9.26114ZM940.559 268H897.359V270H940.559V268ZM898.35 268.864L890.43 211.264L888.448 211.536L896.368 269.136L898.35 268.864ZM889.439 210.4H840.479V212.4H889.439V210.4ZM839.488 211.264L831.568 268.864L833.55 269.136L841.47 211.536L839.488 211.264ZM1008.36 132.92L1009.3 133.272L1009.43 132.916L1009.29 132.562L1008.36 132.92ZM960.84 9.07998V8.07998H959.385L959.906 9.43823L960.84 9.07998ZM1004.76 9.07998L1005.71 8.76499L1005.48 8.07998H1004.76V9.07998ZM1032.12 91.52L1031.17 91.835L1031.4 92.52H1032.12V91.52ZM1032.84 91.52V92.52H1033.58L1033.8 91.8085L1032.84 91.52ZM1057.68 9.07998V8.07998H1056.94L1056.72 8.79148L1057.68 9.07998ZM1101.6 9.07998L1102.54 9.4215L1103.03 8.07998H1101.6V9.07998ZM1056.6 132.92L1055.66 132.578L1055.53 132.923L1055.66 133.267L1056.6 132.92ZM1107 269V270H1108.44L1107.94 268.653L1107 269ZM1063.08 269L1062.13 269.304L1062.35 270H1063.08V269ZM1032.84 174.32L1033.79 174.016L1033.57 173.32H1032.84V174.32ZM1032.12 174.32V173.32H1031.39L1031.17 174.009L1032.12 174.32ZM1001.16 269V270H1001.89L1002.11 269.311L1001.16 269ZM957.24 269L956.304 268.648L955.796 270H957.24V269ZM1009.29 132.562L961.774 8.72173L959.906 9.43823L1007.43 133.278L1009.29 132.562ZM960.84 10.08H1004.76V8.07998H960.84V10.08ZM1003.81 9.39496L1031.17 91.835L1033.07 91.205L1005.71 8.76499L1003.81 9.39496ZM1032.12 92.52H1032.84V90.52H1032.12V92.52ZM1033.8 91.8085L1058.64 9.36848L1056.72 8.79148L1031.88 91.2315L1033.8 91.8085ZM1057.68 10.08H1101.6V8.07998H1057.68V10.08ZM1100.66 8.73846L1055.66 132.578L1057.54 133.262L1102.54 9.4215L1100.66 8.73846ZM1055.66 133.267L1106.06 269.347L1107.94 268.653L1057.54 132.573L1055.66 133.267ZM1107 268H1063.08V270H1107V268ZM1064.03 268.696L1033.79 174.016L1031.89 174.624L1062.13 269.304L1064.03 268.696ZM1032.84 173.32H1032.12V175.32H1032.84V173.32ZM1031.17 174.009L1000.21 268.689L1002.11 269.311L1033.07 174.631L1031.17 174.009ZM1001.16 268H957.24V270H1001.16V268ZM958.176 269.352L1009.3 133.272L1007.42 132.568L956.304 268.648L958.176 269.352Z" fill="white"/>
</g>
<defs>
<filter id="filter0_d" x="0.118965" y="0.0799789" width="1120.32" height="285.92" filterUnits="userSpaceOnUse" color-interpolation-filters="sRGB">
<feFlood flood-opacity="0" result="BackgroundImageFix"/>
<feColorMatrix in="SourceAlpha" type="matrix" values="0 0 0 0 0 0 0 0 0 0 0 0 0 0 0 0 0 0 127 0"/>
<feOffset dy="4"/>
<feGaussianBlur stdDeviation="6"/>
<feColorMatrix type="matrix" values="0 0 0 0 0 0 0 0 0 0 0 0 0 0 0 0 0 0 0.12 0"/>
<feBlend mode="normal" in2="BackgroundImageFix" result="effect1_dropShadow"/>
<feBlend mode="normal" in="SourceGraphic" in2="effect1_dropShadow" result="shape"/>
</filter>
</defs>
</svg>
