<svg width="218" height="108" viewBox="0 0 218 108" fill="none" xmlns="http://www.w3.org/2000/svg">
<path opacity="0.9" d="M75.208 2.03199H77.208V0.0319901H75.208V2.03199ZM75.208 106V108H77.208V106H75.208ZM59.656 106H57.656V108H59.656V106ZM59.656 24.784H61.656V22.784H59.656V24.784ZM59.368 24.784V22.784H57.7261L57.4063 24.3944L59.368 24.784ZM43.24 106V108H44.8819L45.2017 106.39L43.24 106ZM34.6 106L32.6383 106.39L32.9581 108H34.6V106ZM18.472 24.784L20.4337 24.3944L20.1139 22.784H18.472V24.784ZM18.184 24.784V22.784H16.184V24.784H18.184ZM18.184 106V108H20.184V106H18.184ZM2.632 106H0.632V108H2.632V106ZM2.632 2.03199V0.0319901H0.632V2.03199H2.632ZM26.104 2.03199L28.0619 1.62371L27.73 0.0319901H26.104V2.03199ZM38.776 62.8L36.8181 63.2083L37.15 64.8H38.776V62.8ZM39.064 62.8V64.8H40.69L41.0219 63.2083L39.064 62.8ZM51.736 2.03199V0.0319901H50.11L49.7781 1.62371L51.736 2.03199ZM73.208 2.03199V106H77.208V2.03199H73.208ZM75.208 104H59.656V108H75.208V104ZM61.656 106V24.784H57.656V106H61.656ZM59.656 22.784H59.368V26.784H59.656V22.784ZM57.4063 24.3944L41.2783 105.61L45.2017 106.39L61.3297 25.1736L57.4063 24.3944ZM43.24 104H34.6V108H43.24V104ZM36.5617 105.61L20.4337 24.3944L16.5103 25.1736L32.6383 106.39L36.5617 105.61ZM18.472 22.784H18.184V26.784H18.472V22.784ZM16.184 24.784V106H20.184V24.784H16.184ZM18.184 104H2.632V108H18.184V104ZM4.632 106V2.03199H0.632V106H4.632ZM2.632 4.03199H26.104V0.0319901H2.632V4.03199ZM24.1461 2.44027L36.8181 63.2083L40.7339 62.3917L28.0619 1.62371L24.1461 2.44027ZM38.776 64.8H39.064V60.8H38.776V64.8ZM41.0219 63.2083L53.6939 2.44027L49.7781 1.62371L37.1061 62.3917L41.0219 63.2083ZM51.736 4.03199H75.208V0.0319901H51.736V4.03199ZM110.679 67.408L108.704 67.0957L108.338 69.408H110.679V67.408ZM125.079 67.408V69.408H127.42L127.055 67.0957L125.079 67.408ZM118.023 22.768L119.999 22.4557L119.732 20.768H118.023V22.768ZM117.735 22.768V20.768H116.027L115.76 22.4557L117.735 22.768ZM104.919 106V108H106.663L106.901 106.272L104.919 106ZM87.6392 106L85.6723 105.638L85.2372 108H87.6392V106ZM106.791 2.03199V0.0319901H105.126L104.824 1.66967L106.791 2.03199ZM128.967 2.03199L130.934 1.66967L130.632 0.0319901H128.967V2.03199ZM148.119 106V108H150.521L150.086 105.638L148.119 106ZM130.839 106L128.858 106.272L129.095 108H130.839V106ZM127.671 82.96L129.653 82.6876L129.415 80.96H127.671V82.96ZM108.087 82.96V80.96H106.343L106.106 82.6876L108.087 82.96ZM110.679 69.408H125.079V65.408H110.679V69.408ZM127.055 67.0957L119.999 22.4557L116.048 23.0802L123.104 67.7203L127.055 67.0957ZM118.023 20.768H117.735V24.768H118.023V20.768ZM115.76 22.4557L108.704 67.0957L112.655 67.7203L119.711 23.0802L115.76 22.4557ZM104.919 104H87.6392V108H104.919V104ZM89.6062 106.362L108.758 2.39432L104.824 1.66967L85.6723 105.638L89.6062 106.362ZM106.791 4.03199H128.967V0.0319901H106.791V4.03199ZM127 2.39432L146.152 106.362L150.086 105.638L130.934 1.66967L127 2.39432ZM148.119 104H130.839V108H148.119V104ZM132.821 105.728L129.653 82.6876L125.69 83.2324L128.858 106.272L132.821 105.728ZM127.671 80.96H108.087V84.96H127.671V80.96ZM106.106 82.6876L102.938 105.728L106.901 106.272L110.069 83.2324L106.106 82.6876ZM175.24 51.568L177.112 52.2713L177.379 51.5605L177.107 50.8515L175.24 51.568ZM156.232 2.03199V0.0319901H153.322L154.364 2.74849L156.232 2.03199ZM173.8 2.03199L175.698 1.40202L175.243 0.0319901H173.8V2.03199ZM184.744 35.008L182.845 35.638L183.3 37.008H184.744V35.008ZM185.032 35.008V37.008H186.518L186.947 35.585L185.032 35.008ZM194.968 2.03199V0.0319901H193.481L193.053 1.45499L194.968 2.03199ZM212.536 2.03199L214.415 2.71504L215.39 0.0319901H212.536V2.03199ZM194.536 51.568L192.656 50.8849L192.405 51.5746L192.66 52.2626L194.536 51.568ZM214.696 106V108H217.569L216.571 105.305L214.696 106ZM197.128 106L195.222 106.609L195.667 108H197.128V106ZM185.032 68.128L186.937 67.5195L186.492 66.128H185.032V68.128ZM184.744 68.128V66.128H183.293L182.843 67.5064L184.744 68.128ZM172.36 106V108H173.81L174.261 106.622L172.36 106ZM154.792 106L152.919 105.297L151.904 108H154.792V106ZM177.107 50.8515L158.099 1.31549L154.364 2.74849L173.372 52.2845L177.107 50.8515ZM156.232 4.03199H173.8V0.0319901H156.232V4.03199ZM171.901 2.66196L182.845 35.638L186.642 34.378L175.698 1.40202L171.901 2.66196ZM184.744 37.008H185.032V33.008H184.744V37.008ZM186.947 35.585L196.883 2.60899L193.053 1.45499L183.117 34.431L186.947 35.585ZM194.968 4.03199H212.536V0.0319901H194.968V4.03199ZM210.656 1.34895L192.656 50.8849L196.415 52.251L214.415 2.71504L210.656 1.34895ZM192.66 52.2626L212.82 106.695L216.571 105.305L196.411 50.8734L192.66 52.2626ZM214.696 104H197.128V108H214.696V104ZM199.033 105.391L186.937 67.5195L183.126 68.7365L195.222 106.609L199.033 105.391ZM185.032 66.128H184.744V70.128H185.032V66.128ZM182.843 67.5064L170.459 105.378L174.261 106.622L186.645 68.7496L182.843 67.5064ZM172.36 104H154.792V108H172.36V104ZM156.664 106.703L177.112 52.2713L173.367 50.8647L152.919 105.297L156.664 106.703Z" fill="white"/>
</svg>
